<?xml version="1.0" standalone="no"?>
<!DOCTYPE svg PUBLIC "-//W3C//DTD SVG 20010904//EN"
 "http://www.w3.org/TR/2001/REC-SVG-20010904/DTD/svg10.dtd">
<svg version="1.0" xmlns="http://www.w3.org/2000/svg"
 width="564.000000pt" height="798.000000pt" viewBox="0 0 564.000000 798.000000"
 preserveAspectRatio="xMidYMid meet">

<g transform="translate(0.000000,798.000000) scale(0.100000,-0.100000)"
fill="#DEA0A7" stroke="none">
<path d="M0 7933 c0 -55 6 -54 15 5 4 26 2 42 -5 42 -5 0 -10 -21 -10 -47z"/>
<path d="M2793 7970 c-52 -12 -141 -59 -163 -87 -20 -26 -22 -26 -123 -21 -78
4 -113 11 -145 27 -35 18 -42 19 -42 6 0 -9 -8 -18 -17 -21 -71 -24 -123 -67
-123 -102 0 -9 17 1 45 27 33 30 53 41 76 41 l32 0 -34 -23 c-19 -12 -35 -32
-37 -42 -3 -17 2 -14 30 11 18 18 44 35 58 39 l25 6 -22 -18 c-50 -42 -81 -65
-138 -101 -36 -23 -76 -60 -98 -90 -20 -28 -48 -59 -62 -68 -23 -15 -27 -15
-49 0 -18 11 -31 13 -48 7 -15 -6 -17 -10 -7 -10 9 -1 23 -9 33 -20 15 -17 15
-19 0 -32 -34 -28 -74 -93 -74 -120 0 -30 20 -52 20 -22 1 31 130 156 145 141
3 -3 -13 -17 -35 -32 -46 -30 -80 -79 -80 -116 0 -23 -17 -56 -47 -91 -7 -8
-25 -29 -40 -48 -27 -33 -98 -71 -134 -71 -29 0 -23 -14 11 -27 39 -15 38 -26
-7 -59 -86 -63 -131 -115 -143 -166 -10 -41 -10 -52 4 -73 22 -33 33 -31 40 8
3 17 15 46 26 62 l20 30 0 -60 c-1 -59 -1 -61 -80 -165 -47 -62 -80 -115 -81
-130 -3 -57 -9 -83 -33 -137 -28 -61 -31 -73 -16 -73 6 0 10 7 10 15 0 8 5 15
10 15 16 0 11 -53 -7 -80 -9 -13 -33 -38 -52 -55 -75 -66 -120 -230 -88 -322
8 -24 11 -40 7 -38 -5 3 -17 -5 -27 -17 -10 -13 -44 -42 -76 -66 -68 -51 -117
-115 -149 -194 -12 -32 -29 -59 -38 -62 -8 -3 8 -2 35 1 l50 6 -21 -24 c-12
-13 -34 -43 -49 -67 -25 -38 -27 -48 -22 -108 4 -56 1 -74 -20 -120 -13 -30
-22 -58 -19 -63 3 -4 -29 -44 -72 -87 -43 -44 -92 -104 -109 -134 -18 -30 -70
-95 -117 -145 -127 -134 -171 -236 -127 -295 17 -24 21 -43 21 -105 0 -72 2
-79 62 -196 46 -89 74 -132 109 -163 26 -23 51 -56 57 -76 6 -19 16 -100 21
-180 21 -286 73 -687 100 -775 l19 -60 -24 -32 c-43 -56 -103 -195 -119 -272
-9 -40 -25 -91 -36 -112 -18 -37 -22 -39 -53 -33 -23 4 -46 0 -70 -11 -30 -15
-43 -32 -81 -112 -25 -52 -45 -98 -45 -102 0 -4 -23 -27 -50 -50 -28 -23 -50
-47 -50 -53 0 -5 -12 -24 -26 -41 -21 -25 -25 -37 -20 -66 4 -20 8 -58 9 -86
2 -27 11 -64 22 -82 18 -30 18 -34 2 -83 -9 -29 -17 -60 -17 -70 0 -24 51 -67
90 -75 17 -4 30 -10 28 -13 -88 -169 -119 -266 -143 -442 -27 -196 -19 -344
29 -540 13 -52 26 -127 30 -167 l6 -72 -32 -17 c-77 -40 -78 -85 -5 -158 28
-29 62 -58 74 -65 16 -8 23 -21 23 -42 0 -16 13 -53 30 -82 16 -30 30 -56 30
-59 0 -3 -12 -4 -28 -3 -15 1 -143 3 -284 3 -226 2 -258 4 -258 18 0 8 -4 12
-10 9 -5 -3 -10 -15 -10 -26 0 -19 12 -19 568 -17 331 1 495 4 394 7 l-174 6
-24 28 c-13 16 -24 32 -24 37 0 8 107 30 148 30 11 0 23 4 26 9 3 4 25 12 48
15 173 29 292 45 296 41 3 -3 0 -34 -6 -69 -21 -112 -26 -106 82 -106 l93 0
18 109 17 109 87 17 c47 9 111 23 141 30 30 7 56 12 58 10 2 -2 -13 -43 -33
-91 -64 -153 -75 -184 -67 -184 4 0 20 30 36 68 41 95 97 212 101 212 7 0 -12
-50 -40 -105 -45 -91 -74 -175 -60 -175 15 0 32 35 91 180 32 81 47 106 63
108 22 4 29 24 -70 -212 -28 -67 -31 -84 -11 -72 12 7 59 106 82 172 10 28 26
64 35 80 16 29 16 28 11 -39 -4 -57 -20 -107 -63 -204 -4 -10 23 -13 116 -13
92 0 119 3 116 12 -10 31 -14 122 -5 138 5 10 24 23 42 29 l32 11 -24 -25
c-16 -17 -24 -40 -28 -76 -6 -61 2 -69 71 -69 26 0 47 -4 47 -10 0 -6 69 -10
187 -10 184 0 187 0 219 25 57 43 195 103 279 121 126 27 242 22 445 -20 259
-53 435 -73 519 -58 87 15 163 54 224 117 62 63 77 85 87 130 12 55 -3 64 -92
52 -122 -15 -229 -2 -312 37 -69 33 -157 109 -143 123 4 3 17 -3 30 -15 20
-18 137 -82 152 -82 3 0 25 -9 49 -21 41 -19 46 -19 81 -5 21 9 48 16 60 16
12 0 40 7 61 16 53 22 112 13 143 -22 20 -24 22 -34 16 -78 -7 -57 -40 -119
-92 -177 -46 -50 -182 -119 -254 -127 -120 -15 -280 -5 -439 26 -202 40 -438
59 -523 42 -81 -16 -155 -45 -192 -75 l-30 -25 638 0 c407 0 637 4 637 10 0
10 51 40 68 40 5 0 14 -11 20 -25 6 -14 19 -25 27 -25 14 0 14 3 0 30 -8 16
-15 31 -15 34 0 2 19 15 43 29 87 52 136 133 145 244 5 60 4 63 -29 96 -45 45
-98 53 -196 31 -114 -25 -176 -17 -262 35 -39 24 -76 51 -81 61 -8 15 -4 16
39 12 30 -3 61 1 82 11 19 8 50 22 71 31 45 20 58 20 87 -1 21 -14 31 -15 86
-4 34 7 86 12 116 11 30 -1 60 -1 67 -1 7 1 22 22 32 47 24 55 55 83 92 84 47
0 77 18 98 59 28 55 25 89 -11 131 -28 33 -28 35 -9 42 23 8 599 67 910 93
107 9 223 18 258 21 l62 6 0 56 c0 31 -9 129 -20 217 -26 213 -26 239 3 253
20 10 20 11 -12 11 -19 1 -73 -3 -120 -9 -47 -5 -185 -21 -306 -35 -121 -14
-238 -27 -260 -30 -205 -28 -671 -82 -674 -79 -3 2 5 32 17 67 31 88 30 166
-4 206 -40 48 -74 43 -135 -20 -60 -61 -87 -113 -95 -176 -8 -69 -24 -103 -51
-114 -40 -15 -51 -11 -62 24 -6 18 -30 51 -52 73 -57 55 -82 99 -75 129 4 14
-1 53 -10 88 -11 41 -15 76 -10 101 7 35 12 40 69 66 61 27 223 80 262 86 11
1 22 3 25 4 3 1 25 1 50 0 43 -1 47 1 76 43 40 56 51 92 59 195 5 62 2 96 -10
138 -14 49 -14 58 -2 67 11 9 13 25 8 71 -7 54 -6 59 16 69 13 5 23 18 23 27
0 24 -32 50 -61 50 -23 0 -26 6 -37 63 -12 62 -15 107 -10 162 2 24 -3 33 -29
50 -30 18 -32 24 -31 70 2 44 -4 62 -44 130 -112 195 -244 492 -227 510 5 5 9
21 9 35 0 14 11 49 24 76 22 46 75 256 91 364 11 73 13 78 50 82 l34 4 -19
-32 c-22 -35 -24 -44 -11 -44 5 0 24 19 41 43 l32 42 -7 -35 c-7 -36 -44 -100
-57 -100 -5 0 -8 -4 -8 -10 0 -15 26 -12 40 5 7 8 21 15 30 15 26 0 58 45 76
107 13 45 19 53 40 53 32 0 30 12 -4 28 -25 10 -36 24 -60 75 -2 4 14 5 36 1
25 -4 42 -2 46 5 4 6 1 12 -6 12 -45 5 -56 7 -74 17 -11 6 -26 18 -34 26 -11
14 -6 16 41 17 49 1 51 2 23 10 -24 7 -35 19 -48 52 -9 24 -33 63 -53 87 -29
34 -32 40 -14 30 14 -7 39 -10 62 -6 21 3 40 2 44 -4 3 -5 1 -37 -5 -71 -6
-34 -9 -63 -6 -66 11 -12 29 46 32 105 2 48 8 70 23 86 22 24 28 42 10 30 -8
-4 -9 3 -4 24 7 32 -21 112 -44 126 -6 4 -11 17 -11 29 0 21 1 21 23 -4 12
-15 33 -34 47 -42 29 -18 110 -30 110 -16 0 5 -8 9 -19 9 -39 0 -81 23 -102
57 -27 43 -15 60 27 38 33 -17 74 -20 74 -5 0 6 -9 10 -21 10 -34 0 -59 19
-59 45 0 25 14 33 25 15 3 -5 21 -10 38 -9 30 1 30 1 7 8 -14 4 -25 11 -26 16
0 6 -4 18 -9 28 -14 33 10 41 38 13 27 -27 80 -36 92 -16 4 6 -5 10 -20 10
-29 0 -65 49 -65 89 0 21 3 23 34 18 52 -8 131 51 111 83 -3 5 2 21 11 35 16
24 15 25 -4 25 -11 0 -36 -7 -55 -15 -60 -25 -69 -21 -51 20 7 19 14 49 14 68
0 27 5 35 28 44 l27 11 -34 1 c-25 1 -32 5 -27 16 3 10 -1 15 -12 15 -15 0
-52 49 -52 69 0 4 21 7 48 7 63 -1 62 20 -1 44 -27 10 -55 24 -63 30 -16 14
-19 35 -4 25 16 -10 60 -16 60 -9 0 3 -13 22 -30 41 -16 18 -30 40 -30 48 0 8
-8 15 -17 15 -12 0 -6 9 20 31 20 17 51 58 67 91 29 57 29 61 14 91 -9 18 -26
43 -38 56 -23 27 -8 21 42 -16 17 -13 39 -38 48 -56 9 -18 21 -35 26 -38 15
-10 22 -85 11 -116 -8 -21 -7 -31 3 -40 16 -16 30 23 40 106 6 52 3 63 -21
105 -16 28 -44 56 -69 71 -47 27 -96 75 -78 75 7 0 12 -5 12 -11 0 -24 18 4
30 47 11 38 11 55 0 97 -11 45 -11 52 5 63 22 16 11 34 -20 34 -24 0 -55 33
-55 57 0 9 7 10 26 2 19 -6 37 -6 60 1 50 17 41 30 -18 30 -48 0 -54 3 -66 28
-25 51 -25 52 2 52 14 0 26 5 26 10 0 6 -10 10 -23 10 -13 0 -32 7 -43 15 -18
14 -17 14 14 15 36 0 44 17 10 22 -13 2 -22 12 -25 27 -2 18 0 22 13 17 8 -3
20 -6 25 -6 13 0 39 -56 39 -86 0 -23 2 -25 16 -13 13 10 14 24 9 68 -8 67
-16 83 -47 99 -13 7 -31 26 -40 42 -15 27 -15 30 1 44 21 19 47 21 54 4 3 -8
6 -6 6 4 1 10 -15 35 -34 57 -40 44 -47 66 -10 31 14 -13 25 -19 25 -12 0 6
-14 22 -32 36 -18 14 -29 28 -26 32 4 4 23 -9 42 -28 39 -39 65 -114 68 -192
1 -40 3 -34 8 29 3 44 2 88 -3 98 -15 32 1 31 17 -1 16 -31 24 -191 11 -224
-4 -10 -3 -18 1 -18 18 1 44 73 50 138 5 55 3 71 -10 84 -9 9 -16 24 -16 32 0
9 -4 24 -9 34 -5 9 -17 34 -25 54 -18 41 -50 68 -80 68 -16 0 -17 3 -8 12 9 9
5 15 -19 25 -17 7 -44 13 -60 13 -22 0 -32 7 -44 30 -14 27 -14 31 0 36 21 8
19 24 -3 24 -18 0 -42 18 -42 30 0 4 14 5 30 2 36 -5 40 13 5 22 -22 6 -25 12
-25 49 0 61 -39 137 -91 178 -24 19 -54 46 -67 61 -13 15 -32 30 -44 34 -20 6
-19 8 13 23 49 25 79 45 79 53 0 5 -17 8 -39 8 -59 0 -101 11 -101 26 0 17 50
40 103 49 20 3 37 10 37 14 0 5 -21 4 -47 -1 -44 -8 -50 -6 -65 14 -9 13 -27
35 -38 51 -15 19 -17 27 -8 27 18 1 -18 28 -62 47 -19 8 -51 22 -70 31 -19 9
-44 19 -55 22 -16 6 -11 9 23 19 32 9 52 9 74 2 45 -16 53 -13 32 10 -30 33
-63 46 -144 54 -113 13 -324 10 -315 -4 7 -12 -50 -5 -85 10 -96 42 -117 44
-188 22 -37 -12 -111 -24 -164 -28 -87 -6 -100 -5 -125 12 -39 27 -53 31 -90
23z m472 -10 c-3 -5 -12 -7 -20 -3 -21 7 -19 13 6 13 11 0 18 -4 14 -10z
m-438 -6 c-3 -3 -12 -4 -19 -1 -8 3 -5 6 6 6 11 1 17 -2 13 -5z m23 -54 c13
-9 13 -10 0 -9 -8 0 -24 4 -35 9 l-20 9 20 0 c11 0 27 -4 35 -9z m1010 0 c12
-8 11 -10 -7 -10 -12 0 -25 5 -28 10 -8 13 15 13 35 0z m-90 -10 c0 -5 -11
-10 -24 -10 -13 0 -33 -3 -43 -6 -12 -5 -15 -4 -8 4 6 6 21 12 35 15 14 2 28
5 33 6 4 0 7 -3 7 -9z m-175 -40 c-3 -5 -12 -10 -18 -10 -7 0 -6 4 3 10 19 12
23 12 15 0z m69 -5 c11 -8 30 -15 43 -15 35 0 83 -28 77 -44 -3 -8 8 -22 28
-34 28 -18 33 -27 33 -59 0 -32 3 -38 20 -36 11 1 14 0 7 -3 -10 -5 -10 -9 0
-21 10 -13 8 -14 -12 -11 -19 2 -26 10 -28 31 -2 15 -8 27 -14 27 -6 0 -8 8
-5 19 7 30 -81 109 -145 130 -21 7 -38 17 -38 22 0 13 12 11 34 -6z m-1077
-11 c-3 -3 -12 -4 -19 -1 -8 3 -5 6 6 6 11 1 17 -2 13 -5z m-167 -28 c0 -3 -4
-8 -10 -11 -5 -3 -10 -1 -10 4 0 6 5 11 10 11 6 0 10 -2 10 -4z m-40 -12 c0
-11 -34 -33 -50 -33 -10 0 -8 6 9 19 23 20 41 26 41 14z m1518 -41 c16 -16 41
-36 56 -46 35 -24 34 -44 -1 -21 -38 24 -133 119 -106 105 11 -6 34 -23 51
-38z m-1478 17 c-8 -5 -17 -7 -19 -4 -3 3 1 9 9 14 8 5 17 7 19 4 3 -3 -1 -9
-9 -14z m320 -14 c0 -14 -27 -31 -43 -27 -5 1 -6 -3 -3 -8 4 -5 -7 -19 -24
-31 -16 -12 -30 -27 -30 -35 0 -14 -21 -25 -51 -25 -11 0 -34 -7 -50 -16 -17
-8 -33 -14 -35 -11 -2 2 27 20 66 41 39 20 79 45 90 56 25 25 23 25 -28 0 -54
-26 -60 -25 -32 5 13 14 29 25 35 25 6 0 28 9 50 20 46 24 55 25 55 6z m-341
-38 c-8 -14 -14 -18 -17 -10 -2 8 -13 10 -30 6 -15 -4 -24 -3 -20 1 4 4 22 11
40 15 18 4 34 8 36 9 1 1 -3 -9 -9 -21z m1181 -8 c21 -16 43 -30 49 -30 13 0
13 -3 5 -24 -3 -9 -10 -13 -15 -10 -5 3 -7 10 -4 15 4 5 -1 9 -9 9 -9 0 -16 5
-16 11 0 5 -5 7 -11 4 -10 -7 -49 30 -49 47 0 14 11 9 50 -22z m122 3 c-6 -2
-10 -9 -7 -13 3 -5 11 -7 18 -4 7 2 39 -23 71 -56 32 -33 61 -60 65 -60 22 -1
182 -39 164 -39 -12 -1 -25 -6 -29 -12 -4 -6 -17 -8 -33 -3 -14 4 -34 6 -44 6
-9 0 -15 3 -13 7 7 11 -39 35 -52 27 -5 -3 -18 2 -28 10 -11 9 -12 13 -4 9 8
-3 6 0 -4 7 -22 15 -44 36 -68 66 -10 13 -24 19 -36 15 -11 -2 -23 0 -27 7 -8
13 12 40 29 39 7 0 6 -2 -2 -6z m-1372 -40 c0 -32 -5 -28 -14 10 -4 19 -3 26
4 22 5 -3 10 -18 10 -32z m-39 13 c-6 -8 -11 -18 -10 -22 7 -38 -2 -49 -41
-52 -22 -1 -40 1 -40 6 0 18 49 54 62 46 7 -4 10 -4 6 1 -9 9 9 35 24 35 6 0
6 -6 -1 -14z m1382 -26 c7 -6 21 -18 33 -28 28 -22 42 -65 19 -56 -9 4 -24 -1
-34 -10 -14 -13 -21 -14 -26 -6 -4 7 -4 15 1 19 16 11 14 28 -6 46 -10 9 -16
23 -13 31 6 17 10 17 26 4z m-1145 -14 c-2 -1 -12 -8 -22 -16 -18 -14 -18 -14
-6 7 8 12 18 19 23 16 4 -3 7 -6 5 -7z m169 -64 c-14 -15 -30 -39 -36 -53 -6
-18 -19 -28 -42 -33 -22 -4 -50 -25 -86 -64 -35 -38 -49 -48 -41 -30 7 14 17
24 22 21 5 -4 6 -1 1 6 -8 13 10 55 33 80 8 8 12 25 9 38 l-4 24 27 -26 c26
-25 27 -25 43 -7 9 10 17 23 17 27 0 5 14 24 32 42 27 28 33 31 41 17 7 -11 2
-23 -16 -42z m1221 36 c-5 -15 -23 -11 -26 6 -2 11 2 14 13 10 9 -4 14 -11 13
-16z m-308 -18 c0 -6 -9 -5 -20 2 -11 7 -20 16 -20 21 0 4 9 3 20 -3 11 -6 20
-15 20 -20z m-889 -47 c-5 -10 -12 -26 -15 -36 -3 -10 -10 -15 -16 -12 -15 9
-12 19 11 49 23 30 36 29 20 -1z m-586 -3 c-3 -5 -11 -10 -16 -10 -6 0 -7 5
-4 10 3 6 11 10 16 10 6 0 7 -4 4 -10z m400 -8 c-5 -4 -11 -18 -13 -32 -3 -34
-23 -70 -38 -70 -7 0 -16 -5 -19 -10 -4 -6 -3 -9 2 -8 4 2 8 -1 8 -7 0 -5 -14
-10 -31 -9 -30 1 -32 -1 -38 -44 -3 -25 -17 -65 -31 -88 -14 -23 -25 -49 -25
-56 0 -8 -9 -31 -20 -53 -11 -22 -20 -44 -20 -50 0 -6 -7 -20 -16 -31 -14 -18
-15 -18 -9 6 6 24 6 24 -10 5 -8 -11 -13 -26 -10 -35 5 -12 4 -13 -7 -2 -10
10 -9 18 5 40 9 15 21 26 26 25 6 -2 8 4 5 12 -4 8 -1 15 6 15 7 0 10 7 6 15
-3 8 0 20 7 27 18 18 57 104 57 125 0 9 7 25 17 35 9 10 14 21 10 24 -6 7 -47
-32 -47 -45 0 -5 -4 -11 -8 -13 -4 -1 -23 -32 -41 -68 -28 -57 -146 -198 -157
-188 -2 2 17 35 42 73 55 83 65 120 38 140 -17 13 -18 14 -1 15 9 0 17 -5 17
-11 0 -14 52 -2 63 14 4 7 6 26 3 43 -4 30 -3 32 27 30 27 -1 32 3 37 29 8 38
44 108 63 123 11 9 22 10 42 2 23 -9 28 -7 32 10 3 11 13 20 22 20 9 0 12 -3
6 -8z m898 -26 c4 -10 1 -13 -9 -9 -7 3 -14 9 -14 14 0 14 17 10 23 -5z
m-1271 -33 c-11 -15 -27 -45 -35 -65 -9 -21 -28 -53 -42 -72 -27 -35 -73 -71
-81 -63 -8 8 8 37 17 31 5 -3 9 2 9 10 0 9 -3 16 -7 16 -14 0 -8 56 6 74 23
28 95 73 108 69 7 -2 18 5 25 16 7 11 14 18 16 16 2 -2 -5 -16 -16 -32z m-142
14 c0 -2 -10 -12 -22 -23 l-23 -19 19 23 c18 21 26 27 26 19z m1896 -19 c19 0
34 -4 34 -9 0 -5 8 -9 17 -9 24 0 104 -40 98 -49 -8 -14 -77 -10 -99 5 -18 14
-18 15 -2 10 16 -5 17 -4 7 8 -10 12 -18 13 -37 4 -24 -11 -32 -42 -14 -53 6
-3 10 -1 10 6 0 8 5 6 13 -4 17 -24 121 -61 113 -41 -10 25 8 15 38 -22 23
-29 25 -34 8 -25 -34 18 -47 13 -27 -9 10 -11 15 -23 12 -27 -4 -3 -7 -1 -7 5
0 7 -7 12 -15 12 -8 0 -15 5 -15 11 0 7 -9 9 -21 6 -12 -3 -32 1 -44 9 -19 13
-23 13 -28 1 -3 -8 0 -20 6 -26 7 -7 7 -11 1 -11 -18 0 -84 72 -84 92 0 10 -6
18 -14 18 -16 0 -19 50 -2 50 6 0 3 5 -6 11 -10 5 -18 21 -18 35 0 22 2 24 21
13 12 -6 37 -11 55 -11z m-197 -53 c15 4 22 -3 35 -35 18 -45 20 -70 7 -70
-15 0 -61 52 -61 70 0 9 -11 27 -25 40 -14 13 -25 28 -25 34 0 6 12 -2 25 -17
17 -19 31 -26 44 -22z m-1109 -14 c-7 -13 -7 -22 0 -26 18 -11 11 -34 -26 -86
-58 -80 -75 -120 -80 -183 -6 -76 -38 -121 -150 -211 -27 -21 -51 -42 -54 -46
-3 -3 -26 -14 -52 -24 -27 -10 -48 -22 -48 -26 0 -5 -9 -9 -19 -9 -11 0 -22
-4 -25 -9 -6 -8 -81 -51 -91 -51 -29 0 79 91 125 105 25 8 84 52 153 114 53
48 113 147 121 201 17 111 64 210 99 210 7 0 20 14 29 30 19 33 35 42 18 11z
m-310 -71 c0 -5 -2 -10 -4 -10 -3 0 -8 5 -11 10 -3 6 -1 10 4 10 6 0 11 -4 11
-10z m165 -27 c-9 -38 -45 -94 -45 -71 0 9 7 23 15 31 8 8 12 17 9 20 -6 6 14
47 22 47 4 0 3 -12 -1 -27z m1112 7 c-5 -28 -12 -33 -27 -14 -12 13 -11 17 1
25 22 14 29 11 26 -11z m-397 -99 c11 -99 18 -121 56 -181 11 -17 6 -14 -13 8
-61 67 -102 178 -84 225 5 12 12 31 15 41 10 30 14 17 26 -93z m-160 92 c-1
-5 -7 -19 -15 -33 -7 -14 -10 -29 -6 -35 10 -13 -21 -198 -34 -202 -20 -6 -34
45 -22 82 5 19 14 32 18 29 5 -3 6 1 3 9 -9 26 30 157 47 157 5 0 9 -3 9 -7z
m464 -36 c9 -7 12 -17 8 -25 -6 -8 -15 1 -31 30 -12 24 -16 35 -8 25 9 -10 22
-24 31 -30z m276 12 c0 -26 -13 -24 -26 5 -9 20 -9 23 8 18 10 -2 18 -13 18
-23z m-1647 -6 c-9 -16 -37 -52 -62 -81 -31 -38 -49 -51 -62 -47 -12 4 -19 -1
-24 -14 -3 -12 -12 -18 -20 -15 -8 3 -11 12 -8 20 8 20 -14 17 -48 -7 -27 -19
-49 -19 -49 1 0 12 64 50 84 50 9 0 35 9 57 20 31 14 39 16 35 5 -3 -8 -1 -17
4 -20 5 -3 12 5 16 17 5 18 80 98 92 98 1 0 -5 -12 -15 -27z m2039 -18 c4 -20
2 -23 -8 -14 -7 6 -10 17 -7 25 7 20 10 18 15 -11z m-2002 -34 c-5 -11 -15
-23 -22 -27 -7 -5 -8 -2 -3 7 21 37 44 55 25 20z m1271 -43 c27 -53 31 -88 9
-80 -26 10 -39 36 -40 80 0 23 2 42 5 42 2 0 14 -19 26 -42z m123 -35 c43 -80
46 -101 8 -54 -26 34 -50 83 -51 109 -2 24 8 11 43 -55z m-1143 34 c-10 -9
-11 -8 -5 6 3 10 9 15 12 12 3 -3 0 -11 -7 -18z m1063 -3 c3 -8 2 -12 -4 -9
-6 3 -10 10 -10 16 0 14 7 11 14 -7z m311 -36 c8 -18 20 -22 68 -24 55 -3 58
-2 51 18 -4 14 -2 18 5 14 6 -4 11 -18 11 -32 0 -17 -6 -24 -19 -24 -11 0 -21
-6 -23 -12 -3 -7 -15 -13 -29 -13 -18 0 -25 -7 -29 -29 -4 -24 -7 -27 -17 -15
-6 8 -14 26 -18 42 -4 15 -10 27 -14 27 -4 0 -7 8 -7 18 0 9 -4 27 -8 39 -10
30 15 22 29 -9z m-700 -144 c14 -85 12 -154 -4 -154 -12 0 -61 146 -61 183 0
19 5 59 12 87 l12 52 13 -37 c7 -21 20 -80 28 -131z m-1045 56 c-29 -44 -55
-79 -57 -76 -3 2 3 16 12 30 9 14 14 30 10 36 -4 6 -1 9 6 8 6 -2 14 3 17 11
3 10 0 11 -9 5 -10 -6 -9 -1 3 16 9 14 21 24 27 23 6 -2 16 6 23 17 7 10 14
17 17 15 2 -3 -20 -41 -49 -85z m340 48 c-1 -7 -15 -29 -32 -48 -23 -27 -27
-29 -18 -10 17 33 41 70 46 70 2 0 4 -6 4 -12z m1152 -67 c-5 -3 -11 -13 -14
-21 -4 -10 -13 0 -27 30 -31 66 -26 79 14 35 20 -21 32 -41 27 -44z m-1600 44
c-2 -14 -9 -25 -14 -25 -6 0 -7 8 -4 18 6 16 -21 -13 -71 -75 -25 -31 -28 -43
-13 -43 6 0 15 10 20 23 5 13 9 16 10 7 0 -13 1 -13 10 0 8 12 10 11 10 -6 0
-22 -55 -69 -70 -59 -6 3 -10 0 -10 -8 0 -18 -28 -75 -41 -82 -5 -4 -9 4 -9
17 0 38 11 68 25 68 7 0 16 17 20 38 9 51 29 81 78 119 51 40 66 41 59 8z m32
-7 c-21 -41 -32 -134 -14 -123 8 5 1 -8 -14 -28 -31 -40 -47 -51 -22 -15 12
16 14 35 10 69 -5 34 -2 55 12 80 10 19 17 37 17 40 -1 3 4 6 12 6 11 0 11 -5
-1 -29z m287 -25 c12 -15 12 -16 -3 -10 -9 3 -22 -1 -29 -9 -10 -12 -9 -13 7
-8 10 3 -9 -21 -44 -53 -63 -59 -182 -133 -182 -114 0 6 4 11 9 11 4 0 21 12
37 28 61 57 121 102 129 94 5 -4 5 1 2 10 -4 11 4 25 24 43 36 30 33 29 50 8z
m-210 -114 c-34 -34 -65 -59 -68 -56 -7 8 73 99 100 114 41 22 31 3 -32 -58z
m1225 30 c42 -36 48 -47 51 -85 1 -24 0 -44 -3 -44 -14 0 -46 42 -73 97 -45
89 -43 91 25 32z m-1026 -23 c0 -2 -7 -7 -16 -10 -8 -3 -12 -2 -9 4 6 10 25
14 25 6z m713 -86 c-6 -7 -43 43 -43 59 0 8 11 -1 23 -20 13 -19 22 -36 20
-39z m286 18 c10 -24 31 -54 45 -68 l27 -24 -43 -39 c-24 -21 -51 -43 -61 -49
-17 -9 -18 -6 -13 39 3 26 9 78 12 116 4 37 9 67 11 67 2 0 12 -19 22 -42z
m1096 32 c3 -5 -3 -10 -14 -10 -11 0 -23 5 -26 10 -3 6 3 10 14 10 11 0 23 -4
26 -10z m-1176 -82 c1 -21 -3 -38 -8 -38 -17 0 -20 16 -14 71 6 44 8 49 14 29
4 -14 7 -42 8 -62z m1136 49 c35 -20 85 -60 85 -68 0 -13 -55 0 -70 18 -8 10
-28 28 -44 41 -23 18 -25 22 -10 22 11 -1 28 -6 39 -13z m-2414 -15 c-5 -10
-17 -24 -25 -32 -9 -7 -16 -19 -16 -27 0 -8 -34 -48 -75 -88 -41 -40 -75 -68
-75 -64 0 18 49 86 84 117 20 17 36 36 36 41 0 8 69 71 78 71 1 0 -2 -8 -7
-18z m19 -55 c-70 -79 -80 -93 -80 -114 0 -13 -4 -23 -9 -23 -11 0 -21 -25
-26 -63 -3 -15 -20 -54 -39 -85 -18 -31 -55 -100 -81 -152 -26 -52 -53 -98
-59 -102 -8 -6 -7 -11 4 -19 13 -9 12 -10 -2 -5 -21 6 -37 -19 -30 -47 3 -14
1 -18 -6 -13 -7 4 -12 2 -12 -4 0 -21 24 -4 30 21 7 29 37 33 32 4 -2 -11 -6
-35 -9 -53 -3 -18 0 -39 7 -47 9 -11 7 -16 -9 -27 -12 -7 -21 -20 -21 -30 0
-9 -5 -20 -10 -23 -7 -4 -9 2 -4 19 4 18 2 26 -7 26 -7 0 -9 -3 -6 -7 4 -3 2
-12 -4 -19 -6 -8 -9 -21 -5 -29 3 -9 2 -13 -4 -10 -6 3 -10 -1 -10 -11 0 -31
-80 -163 -111 -181 -16 -9 -29 -23 -29 -30 0 -15 -3 -15 38 -4 l33 10 -23 -28
c-30 -35 -84 -149 -75 -157 4 -4 15 0 25 9 24 22 31 21 25 -3 -5 -20 12 -50
28 -50 5 0 9 10 10 23 l0 22 11 -22 c18 -38 4 -50 -72 -63 -39 -7 -73 -10 -75
-8 -2 2 2 22 10 43 17 48 19 92 4 97 -7 2 -7 12 0 31 16 41 14 130 -1 124 -7
-2 -24 -7 -38 -11 -20 -6 -18 -3 10 16 19 13 43 31 52 41 10 9 25 17 33 17 19
0 65 40 65 57 0 8 -7 6 -21 -8 -23 -23 -43 -21 -47 7 -4 18 -3 18 12 -1 14
-19 15 -15 16 50 1 75 12 117 24 97 4 -6 2 -30 -4 -52 -11 -40 -7 -60 11 -60
5 0 9 11 9 25 0 14 4 33 9 43 20 39 44 162 31 162 -3 0 -14 -15 -25 -32 -10
-18 -25 -38 -32 -43 -8 -6 -21 -28 -29 -50 -13 -35 -14 -36 -10 -9 3 17 18 51
34 75 17 24 39 62 51 84 11 22 46 65 77 95 72 71 160 203 173 258 16 73 159
291 181 277 5 -3 -5 -20 -20 -38z m1120 2 c0 -5 -4 -9 -10 -9 -5 0 -10 7 -10
16 0 8 5 12 10 9 6 -3 10 -10 10 -16z m-746 -10 c-11 -19 -60 -38 -74 -29 -8
5 -12 10 -10 12 48 31 99 41 84 17z m701 -56 c-7 -15 -9 -14 -15 12 -14 55
-10 73 7 38 10 -19 13 -38 8 -50z m95 45 c0 -7 -3 -23 -6 -36 l-7 -23 -14 21
c-12 16 -12 24 -3 35 15 18 30 19 30 3z m81 -18 c12 0 11 -58 -2 -119 -12 -59
-12 -66 0 -66 5 0 13 -3 17 -7 4 -5 16 -8 26 -8 10 0 18 -4 18 -10 0 -5 6 -7
14 -4 8 3 23 -8 37 -27 18 -26 23 -44 21 -86 -2 -42 2 -56 18 -70 13 -12 20
-30 20 -55 0 -31 4 -38 19 -38 11 0 34 -13 51 -28 l30 -28 -15 -43 c-24 -68
-17 -80 15 -28 17 26 36 47 43 47 6 0 26 -9 42 -20 17 -11 40 -20 52 -20 12 0
28 -3 37 -6 14 -5 14 -9 -1 -37 -23 -45 -55 -87 -66 -87 -13 0 -166 -77 -190
-94 -19 -15 -33 -76 -17 -76 5 0 15 6 23 14 8 8 23 16 33 18 10 2 22 7 26 13
4 5 9 7 13 4 3 -3 -6 -18 -19 -32 -13 -14 -29 -43 -36 -64 -27 -91 -73 -212
-79 -211 -19 2 -31 -4 -31 -16 0 -9 -7 -12 -20 -9 -19 5 -28 22 -12 24 46 4
87 33 66 47 -6 4 -14 14 -18 22 -3 8 -4 2 -1 -15 4 -24 3 -27 -5 -12 -16 26
-33 21 -19 -5 11 -21 11 -22 -5 -9 -14 12 -16 12 -10 -2 4 -12 -2 -18 -21 -23
l-26 -6 22 -24 c12 -13 18 -24 12 -24 -19 0 -47 42 -64 95 l-16 54 43 47 c52
55 66 104 39 134 -10 11 -25 20 -34 20 -9 0 -37 11 -62 24 -43 23 -50 24 -120
14 -55 -7 -87 -7 -125 2 -44 11 -58 10 -96 -5 -44 -16 -47 -16 -86 4 -31 16
-47 34 -71 80 -16 32 -27 61 -24 64 8 8 -34 114 -58 146 -23 31 -22 66 1 66 8
0 22 -15 30 -32 16 -34 36 -39 33 -7 -3 26 -11 65 -19 92 -4 14 0 38 11 62 20
44 18 44 208 59 101 8 110 10 140 38 55 52 120 62 172 27 39 -27 48 -15 19 24
-25 31 -28 44 -26 87 2 28 4 69 5 93 1 31 5 41 15 37 8 -3 18 -5 23 -5z
m-1457 -42 c-4 -7 -15 -22 -25 -33 -41 -46 -89 -221 -77 -284 10 -55 1 -71
-23 -40 -23 30 -24 62 -3 94 10 16 14 37 11 57 -5 34 14 82 57 143 37 53 81
99 60 63z m2586 -38 c0 -5 -2 -10 -4 -10 -3 0 -8 5 -11 10 -3 6 -1 10 4 10 6
0 11 -4 11 -10z m247 -37 c-3 -10 -5 -2 -5 17 0 19 2 27 5 18 2 -10 2 -26 0
-35z m-2798 -35 c-7 -13 -15 -25 -18 -28 -6 -5 -16 -30 -45 -107 -18 -49 -30
-53 -22 -8 7 39 44 113 74 148 21 23 25 21 11 -5z m745 -203 c-25 -25 -49 -45
-52 -45 -8 1 84 90 93 90 3 0 -15 -20 -41 -45z m1081 -44 c-3 -6 -14 -11 -23
-11 -15 1 -15 2 2 15 21 16 32 13 21 -4z m-1995 -22 c0 -5 -4 -9 -10 -9 -5 0
-10 7 -10 16 0 8 5 12 10 9 6 -3 10 -10 10 -16z m851 -16 c-8 -15 -10 -15 -11
-2 0 17 10 32 18 25 2 -3 -1 -13 -7 -23z m1069 -3 c0 -9 -22 -50 -38 -70 -4
-6 -32 30 -32 42 0 7 48 37 63 38 4 0 7 -5 7 -10z m102 -58 c-6 -15 -13 -39
-16 -54 -4 -16 -11 -28 -17 -28 -16 0 -69 30 -69 39 0 14 39 57 40 44 0 -24
26 -13 45 19 21 36 33 22 17 -20z m38 -62 c0 -36 -2 -40 -25 -40 -14 0 -25 3
-25 8 0 10 39 72 45 72 3 0 5 -18 5 -40z m806 -17 c-7 -7 -26 7 -26 19 0 6 6
6 15 -2 9 -7 13 -15 11 -17z m-3011 -50 c-14 -26 -23 -37 -19 -23 9 35 34 83
40 77 3 -3 -6 -27 -21 -54z m2996 -14 c-9 -23 -10 -22 -10 11 -1 23 2 31 9 24
7 -7 7 -19 1 -35z m-46 -107 c-9 -9 -35 8 -35 24 0 16 2 16 20 -1 11 -10 18
-20 15 -23z m-2794 -65 c-11 -24 -35 -56 -52 -73 l-31 -29 16 33 c9 17 21 32
26 32 6 0 10 6 10 13 0 17 40 80 47 74 3 -3 -4 -26 -16 -50z m2820 26 c13 -15
12 -15 -8 -4 -24 12 -29 21 -14 21 5 0 15 -7 22 -17z m-2156 -72 c-5 -9 -10
-9 -20 -1 -16 13 -30 -3 -21 -25 3 -8 0 -29 -6 -46 l-11 -32 -17 34 c-17 32
-17 34 0 49 9 8 21 30 25 49 l7 33 25 -25 c14 -14 22 -30 18 -36z m2050 49 c3
-5 2 -10 -4 -10 -5 0 -13 5 -16 10 -3 6 -2 10 4 10 5 0 13 -4 16 -10z m111
-27 c-7 -7 -26 7 -26 19 0 6 6 6 15 -2 9 -7 13 -15 11 -17z m-63 -39 c-3 -8 0
-14 5 -14 6 0 14 -20 18 -45 5 -37 3 -50 -12 -66 -17 -19 -19 -19 -25 -2 -4
10 -2 23 3 30 12 15 6 80 -10 110 -17 32 -15 38 7 19 11 -10 17 -24 14 -32z
m-2563 -20 c0 -6 -7 -17 -15 -24 -13 -11 -15 -6 -15 31 1 41 2 43 15 25 8 -11
15 -25 15 -32z m330 -18 c0 -36 10 -55 25 -50 18 7 38 -31 30 -56 -6 -19 -50
-60 -64 -60 -4 0 -17 20 -29 45 -12 25 -17 45 -12 45 6 0 10 -4 10 -10 0 -11
70 -43 78 -35 3 2 -2 7 -11 11 -9 3 -19 19 -22 35 -4 16 -11 31 -16 34 -12 8
-12 65 1 65 6 0 10 -11 10 -24z m2324 5 c2 -3 -1 -17 -6 -31 l-9 -25 -15 34
c-8 18 -14 35 -14 36 0 5 40 -7 44 -14z m-164 -67 c0 -8 -4 -12 -10 -9 -5 3
-10 13 -10 21 0 8 5 12 10 9 6 -3 10 -13 10 -21z m-1320 7 c0 -5 13 -14 29
-20 15 -7 38 -26 50 -42 12 -17 38 -37 56 -46 29 -14 35 -23 41 -59 9 -61 64
-119 128 -135 l48 -12 -4 -66 c-4 -82 -39 -158 -74 -167 -14 -4 -38 -26 -55
-50 -16 -24 -32 -44 -35 -44 -20 0 -65 35 -82 63 l-20 34 27 46 c14 25 37 60
50 78 l24 31 -24 -7 c-23 -7 -23 -7 -8 11 31 37 31 43 0 41 -16 -1 -27 -5 -25
-9 6 -9 -15 -50 -28 -59 -10 -6 -47 -145 -47 -176 -1 -120 -21 -186 -52 -167
-14 8 -10 115 6 159 8 22 14 55 15 73 0 17 5 32 11 32 5 0 8 4 4 10 -3 5 6 27
20 49 15 25 25 55 25 78 0 21 5 55 11 76 6 22 8 41 5 44 -2 3 -19 -2 -37 -11
-18 -9 -46 -16 -63 -16 -62 0 -74 9 -98 71 -39 101 -48 80 -48 -116 0 -169 -1
-175 -20 -175 -32 0 -140 107 -174 172 -34 64 -56 79 -30 21 9 -21 16 -45 16
-53 1 -15 75 -146 125 -222 54 -80 -11 -155 -99 -115 -14 7 -52 45 -83 85 -31
39 -60 72 -64 72 -4 0 -29 28 -55 61 -43 55 -47 65 -41 97 4 20 13 49 21 64
10 19 11 29 3 34 -14 8 -23 -2 -42 -53 -33 -85 -32 -132 3 -214 18 -41 47
-116 66 -167 19 -51 43 -112 54 -134 15 -32 17 -44 8 -50 -17 -10 -22 -10 -54
2 -32 13 -60 -4 -34 -20 8 -5 11 -10 7 -10 -5 0 -29 16 -54 35 -25 19 -49 35
-52 35 -9 0 -71 115 -71 131 1 8 9 -3 20 -25 46 -92 100 -139 136 -117 17 9
18 10 2 11 -18 0 -25 15 -10 23 4 2 2 3 -4 1 -14 -3 -51 36 -91 96 -71 108
-82 176 -37 230 15 17 24 33 21 37 -4 3 0 18 9 34 22 43 0 35 -38 -13 -18 -24
-41 -52 -50 -62 -18 -20 -18 -19 -18 1 0 13 27 49 68 90 37 37 85 94 106 126
43 63 54 72 106 82 24 4 58 27 105 71 50 47 75 64 90 60 81 -18 78 -19 125 29
44 45 45 45 112 45 37 0 68 -4 68 -9z m-1620 -112 c-23 -83 -34 -32 -13 61 l5
25 9 -24 c6 -14 5 -38 -1 -62z m-52 11 c6 -62 -4 -79 -71 -111 -72 -34 -81
-26 -48 40 24 46 89 113 105 108 6 -2 12 -18 14 -37z m787 -21 c8 -9 15 -22
15 -30 -1 -8 -16 4 -35 25 -19 22 -35 46 -35 55 1 12 6 9 20 -9 11 -14 27 -32
35 -41z m2275 -45 c0 -8 -4 -12 -10 -9 -5 3 -10 13 -10 21 0 8 5 12 10 9 6 -3
10 -13 10 -21z m-3000 -12 c0 -19 -61 -126 -86 -152 -12 -12 -14 -12 -14 6 0
11 16 39 36 63 46 53 38 65 -10 15 -20 -21 -43 -39 -51 -40 -7 -1 -30 -14 -49
-29 -20 -15 -36 -24 -36 -21 0 22 54 73 113 108 38 22 71 46 74 54 7 20 23 17
23 -4z m684 -21 c4 -5 37 -26 74 -47 37 -20 91 -53 121 -71 l53 -34 -31 -23
c-17 -13 -44 -40 -59 -60 -25 -33 -30 -36 -62 -30 -121 23 -396 -12 -516 -66
-26 -11 -49 -19 -50 -17 -2 2 19 28 46 57 28 30 52 62 56 72 3 10 11 18 18 18
7 0 30 20 52 45 51 59 79 77 134 86 50 8 174 -18 215 -45 30 -20 36 -20 29 -1
-9 24 -108 65 -173 71 -81 9 -145 -8 -182 -49 -16 -17 -29 -35 -29 -38 0 -4
-22 -21 -48 -37 -31 -19 -63 -51 -87 -88 -22 -33 -47 -68 -57 -78 -10 -11 -20
-27 -23 -37 -5 -16 -33 -34 -41 -26 -3 3 17 50 53 124 8 17 40 55 71 85 93 90
112 110 112 119 0 13 96 59 144 69 58 11 174 12 180 1z m-832 -153 c-26 -50
-27 -51 -30 -24 -2 19 4 36 19 52 36 38 40 28 11 -28z m158 27 c0 -8 9 -15 20
-15 11 0 20 -4 20 -10 0 -5 -4 -10 -9 -10 -15 0 -101 -84 -101 -98 0 -17 -50
-92 -61 -92 -18 0 -8 41 21 83 34 51 40 78 13 56 -9 -8 0 8 20 35 20 27 37 53
37 57 0 5 9 9 20 9 11 0 20 -7 20 -15z m105 5 c-3 -5 -15 -10 -26 -10 -11 0
-17 5 -14 10 3 6 15 10 26 10 11 0 17 -4 14 -10z m2855 0 c0 -5 -4 -10 -10
-10 -5 0 -10 5 -10 10 0 6 5 10 10 10 6 0 10 -4 10 -10z m-3097 -71 c-9 -24
-25 -57 -36 -72 -22 -33 -17 -46 8 -20 17 17 18 16 11 -22 -4 -22 -12 -44 -18
-50 -7 -7 -9 -2 -4 18 9 37 -1 34 -18 -5 -17 -41 -72 -105 -81 -96 -11 11 4
43 34 74 16 15 27 34 24 40 -4 11 20 58 37 74 3 3 11 23 19 45 14 40 31 69 37
62 2 -2 -4 -23 -13 -48z m3107 -9 c0 -14 -14 -12 -28 2 -19 19 -14 30 8 18 11
-6 20 -15 20 -20z m80 -47 c0 -7 -9 -13 -20 -13 -21 0 -25 15 -13 46 6 16 7
16 20 -2 7 -10 13 -24 13 -31z m-3270 -24 c0 -11 -4 -17 -10 -14 -5 3 -10 13
-10 21 0 8 5 14 10 14 6 0 10 -9 10 -21z m1028 -14 c2 -2 -1 -26 -6 -54 -8
-47 -6 -56 30 -138 22 -48 44 -90 49 -91 5 -2 19 -23 30 -45 12 -23 37 -56 57
-73 l35 -31 -22 -22 c-12 -12 -31 -23 -41 -24 -10 -1 -24 -11 -31 -23 -9 -18
-16 -21 -33 -14 -48 19 -62 23 -73 21 -7 -1 -9 7 -6 19 4 13 0 20 -9 20 -8 0
-21 11 -28 25 -7 14 -15 23 -18 20 -7 -6 47 -95 58 -95 6 0 13 0 17 1 3 0 10
-6 15 -15 5 -8 15 -13 22 -10 7 3 16 -2 19 -10 4 -9 3 -15 -1 -13 -18 5 -125
-59 -132 -80 -5 -11 -14 -24 -20 -28 -6 -3 -24 -34 -41 -68 -17 -33 -42 -69
-55 -80 -24 -18 -35 -55 -12 -41 7 4 8 3 4 -5 -4 -7 -13 -10 -19 -8 -7 2 -25
-7 -40 -19 -16 -13 -35 -24 -42 -24 -7 0 -20 -3 -29 -6 -20 -8 -21 25 -2 79 8
20 12 37 10 37 -14 0 -44 -71 -44 -103 0 -27 -4 -37 -12 -34 -21 7 -11 69 21
131 30 57 41 103 21 91 -5 -3 -10 -1 -10 4 0 6 9 11 20 11 12 0 20 7 20 16 0
11 5 14 16 10 13 -5 15 -1 10 19 -5 18 -1 28 14 37 11 7 20 17 20 22 0 5 -8 2
-18 -7 -26 -24 -30 -22 -38 19 -6 35 -7 36 -18 15 -10 -17 -14 -19 -25 -9 -11
11 -12 9 -6 -11 6 -20 4 -23 -9 -18 -18 7 -20 -1 -7 -22 12 -19 3 -41 -18 -41
-12 0 -11 -5 8 -19 20 -16 22 -21 11 -40 -6 -13 -10 -32 -7 -42 3 -10 2 -19
-2 -19 -8 0 -24 -42 -41 -107 -8 -31 -16 -43 -29 -43 -10 0 -64 23 -120 52
-80 40 -108 59 -128 90 -14 21 -31 39 -37 39 -6 1 -20 2 -31 3 -12 1 -20 8
-19 17 1 13 -5 16 -25 14 -33 -4 -101 39 -101 64 0 22 77 141 92 141 6 0 8 -7
5 -15 -4 -8 -2 -17 3 -20 6 -4 10 -2 10 4 0 43 24 170 36 188 8 12 14 30 14
40 0 10 19 60 42 110 l43 93 68 26 c94 36 203 63 257 65 25 0 83 9 130 19 71
15 182 18 198 5z m2252 -10 c0 -20 -15 -27 -45 -19 -31 8 -28 26 6 35 28 7 39
3 39 -16z m-3227 -127 c-14 -43 -14 -49 1 -63 25 -26 19 -33 -24 -29 -38 3
-55 -8 -27 -20 8 -3 6 -9 -7 -20 -27 -21 -17 -28 25 -16 18 6 51 10 73 10 38
0 38 0 23 -22 -12 -18 -23 -22 -52 -21 -87 6 -236 -43 -298 -96 -18 -16 -43
-34 -55 -40 -20 -11 -23 -11 -15 2 24 42 81 94 212 194 2 2 1 6 -2 10 -4 3
-15 0 -24 -8 -23 -18 -60 -39 -70 -39 -4 0 17 25 47 55 51 52 57 55 105 55
l50 0 23 52 c27 62 36 60 15 -4z m197 -85 c-88 -148 -139 -222 -178 -256 -20
-17 -80 -75 -132 -127 -87 -86 -98 -101 -113 -156 -9 -33 -17 -70 -17 -82 0
-37 17 -24 30 23 16 59 30 67 19 12 -11 -56 -11 -123 -1 -111 5 5 14 41 21 79
13 77 37 118 153 266 67 86 207 291 263 387 17 28 36 54 43 56 17 8 16 4 -23
-56 -43 -65 -72 -141 -91 -234 -11 -60 -22 -83 -64 -139 -27 -36 -50 -71 -50
-77 0 -6 -11 -25 -23 -42 -34 -44 -51 -124 -38 -172 11 -38 31 -77 31 -61 0 5
21 -16 48 -47 43 -50 137 -121 187 -140 23 -8 -36 51 -113 113 -28 24 -50 47
-47 52 4 5 -5 28 -19 52 -15 24 -26 57 -26 73 1 25 5 21 29 -31 26 -55 84
-125 239 -284 23 -24 41 -44 40 -45 -30 -12 -175 -62 -208 -71 -139 -41 -191
-48 -308 -42 -65 4 -133 11 -152 17 -58 16 -122 86 -174 191 -46 90 -48 96
-43 160 5 56 2 71 -16 100 -23 38 -30 61 -18 69 15 11 41 79 35 94 -11 28 124
148 243 215 70 40 201 91 232 91 19 0 71 -22 71 -31 0 -18 -32 -40 -80 -53
-187 -51 -231 -70 -289 -130 -25 -25 -46 -51 -47 -58 -2 -17 -65 -118 -73
-118 -4 0 -5 -18 -3 -40 5 -49 18 -44 27 9 14 85 110 208 196 251 36 19 197
69 222 70 4 0 4 -12 1 -27 -4 -16 -4 -26 -1 -23 14 13 101 132 177 244 47 68
87 123 88 121 2 -2 -20 -43 -48 -92z m1477 -266 c28 -36 38 -58 33 -71 -6 -17
-8 -16 -38 9 -17 15 -42 40 -54 57 -21 30 -21 31 -3 44 10 8 20 14 21 14 1 0
19 -24 41 -53z m-300 -22 c25 -1 50 -9 63 -20 25 -23 25 -32 -1 -40 -11 -4
-28 -25 -39 -50 -10 -23 -22 -44 -27 -46 -5 -2 -31 -38 -58 -79 -61 -96 -89
-125 -142 -151 -42 -20 -45 -20 -57 -4 -10 14 -17 15 -33 7 -11 -6 -44 -14
-74 -17 l-54 -6 30 22 c76 56 192 187 234 264 24 44 52 86 62 93 11 7 19 20
19 29 0 11 5 13 18 8 9 -5 36 -9 59 -10z m1709 -117 c2 -24 -5 -23 -38 9 -30
29 -36 49 -15 56 14 6 52 -40 53 -65z m-1252 36 c20 -8 20 -23 0 -45 -8 -9
-32 -51 -53 -93 -29 -58 -40 -73 -49 -64 -9 9 -15 9 -23 1 -7 -7 2 -21 34 -49
l44 -38 -46 -31 c-85 -57 -123 -187 -75 -252 12 -15 32 -29 45 -31 23 -2 23
-2 -3 13 -16 9 -28 21 -29 28 -5 52 22 116 65 156 l25 24 10 -25 c5 -14 22
-35 38 -48 15 -12 35 -36 43 -53 22 -45 40 -46 40 -3 0 20 2 36 4 36 2 0 11 3
20 6 14 5 14 3 0 -25 -13 -25 -13 -35 -4 -46 18 -22 28 -18 23 9 -6 29 29 45
53 25 14 -11 13 -14 -4 -23 -29 -16 -61 -60 -67 -93 -8 -42 25 -89 72 -102 48
-14 73 -14 73 -1 0 6 -12 10 -27 10 -29 0 -63 25 -63 46 0 15 58 84 70 84 16
0 64 -59 67 -84 2 -17 -6 -36 -26 -58 -26 -29 -35 -33 -80 -33 -60 0 -63 -18
-5 -25 l39 -5 -32 -14 c-49 -20 -61 -39 -30 -46 14 -4 34 -2 45 4 23 12 32 6
32 -24 0 -25 18 -45 39 -45 13 0 13 2 3 9 -8 5 -12 17 -10 27 2 15 8 11 25
-19 12 -20 29 -37 38 -37 10 0 13 5 8 13 -4 6 5 4 20 -5 14 -10 36 -18 47 -18
20 0 20 -1 6 -22 -18 -25 -21 -64 -6 -73 6 -4 10 6 10 23 0 16 6 35 14 41 12
10 15 6 21 -19 8 -38 30 -60 60 -60 33 0 39 15 8 17 -30 1 -43 18 -43 53 0 43
19 52 45 23 16 -20 27 -24 41 -19 18 8 18 8 -3 17 -25 9 -26 10 -17 33 22 56
59 -68 51 -167 -5 -56 -3 -72 10 -86 9 -9 19 -15 22 -13 3 2 8 -5 10 -15 2
-10 10 -27 17 -38 23 -32 18 -65 -8 -64 -21 0 -21 1 -4 8 13 5 16 10 8 15 -6
3 -20 1 -31 -6 -15 -9 -23 -9 -35 1 -9 7 -14 17 -11 21 3 5 1 11 -5 15 -14 9
-12 21 6 39 23 24 7 39 -22 20 -17 -12 -24 -25 -24 -48 0 -41 8 -51 52 -65 22
-7 35 -17 32 -24 -4 -12 -50 -38 -114 -66 -24 -11 -24 -11 5 -6 56 10 77 14
95 20 17 5 18 3 10 -26 -5 -17 -17 -40 -26 -50 -10 -11 -14 -22 -11 -26 4 -3
2 -11 -3 -18 -13 -16 55 -14 72 3 7 7 16 12 22 12 5 0 2 -6 -7 -12 -31 -23
-73 -120 -66 -153 l6 -30 10 24 c6 16 12 20 17 13 4 -7 16 -12 27 -12 11 0 17
-4 14 -10 -3 -5 -1 -10 4 -10 17 0 13 -21 -6 -36 -14 -10 -15 -15 -6 -25 8 -8
9 -18 1 -35 -8 -18 -8 -28 3 -41 9 -11 10 -14 2 -9 -16 9 -17 -6 -1 -22 8 -8
8 -15 -2 -26 -7 -9 -10 -22 -7 -31 4 -8 2 -17 -2 -19 -5 -3 -14 -26 -21 -51
-7 -25 -17 -48 -21 -51 -5 -3 -9 -16 -9 -29 0 -13 -4 -27 -10 -30 -5 -3 -10
-18 -10 -33 0 -19 3 -23 9 -13 6 9 10 4 13 -18 3 -18 1 -34 -3 -37 -9 -5 -11
-20 -11 -81 0 -28 -4 -41 -11 -36 -6 4 -8 -2 -5 -15 4 -15 1 -22 -8 -23 -16
-2 -22 -3 -44 -11 -8 -3 -75 -25 -149 -48 -158 -51 -296 -116 -429 -204 -54
-35 -128 -76 -167 -92 -68 -28 -75 -29 -235 -28 -144 1 -201 6 -310 30 -25 6
-25 6 -5 22 58 49 254 406 284 519 6 23 25 73 40 110 60 140 105 355 116 548
3 55 8 141 10 190 8 139 -35 458 -75 553 -10 23 4 32 14 10 3 -7 3 2 0 20 -7
41 11 43 20 2 3 -17 13 -33 21 -36 23 -9 31 4 12 19 -8 6 -17 21 -19 32 -3 17
3 19 42 18 25 -1 35 1 23 4 -26 5 -31 23 -8 23 8 0 15 4 15 8 0 5 -26 13 -57
18 -48 8 -60 14 -74 39 -9 17 -19 55 -21 85 l-4 56 30 -3 c26 -2 27 -1 8 5
-13 4 -24 12 -25 17 -4 19 41 16 81 -4 50 -26 47 -44 -16 -106 -25 -25 -42
-45 -38 -45 3 0 32 13 64 29 49 25 60 36 76 75 22 57 15 92 -24 114 -41 23
-41 61 0 84 17 9 30 22 30 28 0 6 -12 2 -26 -9 -28 -22 -54 -28 -54 -12 0 5
16 20 37 32 28 17 32 24 20 28 -36 13 2 31 77 38 66 5 79 9 86 27 4 12 20 32
34 45 14 14 26 30 26 37 0 12 39 84 45 84 2 0 10 -3 19 -6z m-1154 -50 c0 -8
-4 -12 -10 -9 -5 3 -10 10 -10 16 0 5 5 9 10 9 6 0 10 -7 10 -16z m2315 -14
c10 -11 15 -20 11 -20 -14 0 -46 21 -46 30 0 16 16 11 35 -10z m-1106 -71
c-12 -25 -19 -54 -17 -70 4 -24 1 -29 -16 -29 -12 1 -34 6 -50 13 l-29 13 53
57 c64 70 91 77 59 16z m1127 -77 c21 -45 13 -50 -25 -15 -22 19 -33 40 -37
68 l-5 40 25 -30 c14 -16 33 -45 42 -63z m-2376 58 c0 -5 -2 -10 -4 -10 -3 0
-8 5 -11 10 -3 6 -1 10 4 10 6 0 11 -4 11 -10z m220 -55 c0 -8 -7 -15 -15 -15
-9 0 -12 6 -9 15 4 8 10 15 15 15 5 0 9 -7 9 -15z m355 -132 c-29 -25 -48 -33
-79 -34 -37 0 -39 -1 -18 -11 24 -12 28 -23 12 -33 -15 -9 -12 -41 5 -55 13
-11 14 -8 9 21 -4 19 -3 31 1 27 5 -4 15 -2 23 5 13 10 15 9 9 -12 -8 -30 8
-61 31 -61 16 1 16 1 0 11 -23 13 -23 33 -1 70 23 38 33 37 33 -5 0 -18 8 -44
19 -57 12 -16 16 -30 10 -44 -14 -37 -9 -71 16 -105 22 -30 25 -31 25 -12 0
12 -4 22 -10 22 -15 0 -12 47 5 80 9 17 17 30 19 30 11 0 47 -75 37 -78 -7 -2
-8 -10 -2 -20 34 -65 104 -408 116 -567 8 -103 -9 -400 -26 -460 -14 -50 -17
-43 -53 120 -30 135 -79 299 -136 455 -21 58 -52 150 -69 205 -39 129 -104
306 -135 370 -17 34 -22 55 -16 66 12 21 48 44 81 52 15 4 48 22 75 41 59 40
73 26 19 -21z m178 -3 c-7 -8 -22 24 -16 34 4 5 10 1 13 -10 4 -10 6 -21 3
-24z m-1077 -60 c4 0 15 -6 23 -14 21 -19 116 -46 160 -46 l36 0 -30 -24 c-16
-13 -45 -29 -64 -35 -33 -10 -36 -8 -96 47 -41 37 -59 60 -51 64 7 5 3 8 -9 8
-11 1 -38 19 -60 41 l-40 40 62 -40 c34 -23 65 -41 69 -41z m1138 54 c5 -14 4
-15 -9 -4 -17 14 -19 20 -6 20 5 0 12 -7 15 -16z m359 -36 c2 -18 3 -35 0 -38
-7 -8 -23 24 -23 48 0 34 17 26 23 -10z m55 -11 c-13 -42 -24 -47 -33 -15 -6
16 -1 26 16 39 13 10 25 17 26 15 1 -1 -3 -19 -9 -39z m-448 23 c0 -5 -2 -10
-4 -10 -3 0 -8 5 -11 10 -3 6 -1 10 4 10 6 0 11 -4 11 -10z m-45 -9 c3 -5 1
-12 -5 -16 -5 -3 -10 1 -10 9 0 18 6 21 15 7z m1474 -50 c10 -15 1 -71 -10
-71 -20 0 -89 73 -89 95 l0 23 46 -17 c25 -10 49 -23 53 -30z m74 -15 c-37
-32 -43 -13 -7 21 16 15 30 21 32 15 2 -7 -9 -23 -25 -36z m-1626 -23 c-11
-10 -27 8 -27 30 l0 21 16 -22 c9 -13 14 -26 11 -29z m653 32 c11 -13 10 -14
-4 -9 -9 3 -16 10 -16 15 0 13 6 11 20 -6z m810 -69 c22 -9 52 -16 66 -16 19
0 24 -4 21 -17 -7 -24 -21 -94 -22 -113 -4 -34 -18 -81 -28 -87 -6 -3 -7 -1
-3 5 9 15 -3 82 -15 82 -5 0 -9 -9 -9 -21 0 -11 -4 -17 -11 -14 -5 4 -8 12 -6
18 2 6 0 16 -5 22 -5 5 -15 19 -23 30 -13 17 -13 14 0 -24 8 -24 20 -50 25
-56 5 -7 7 -15 3 -18 -3 -4 -2 -7 4 -7 6 0 11 -11 11 -25 0 -19 -5 -25 -17
-23 -10 2 -15 12 -13 28 2 23 2 23 -9 6 -11 -17 -13 -17 -36 10 -13 16 -22 23
-18 17 7 -15 -11 -18 -19 -4 -7 10 17 21 45 21 30 0 22 18 -15 34 -38 16 -56
36 -32 36 9 0 16 7 16 16 0 8 -4 13 -9 10 -5 -3 -11 0 -14 7 -3 9 8 11 44 9
34 -3 49 0 49 8 0 7 -6 10 -14 7 -7 -3 -18 -1 -24 5 -6 6 -8 17 -5 24 3 8 -1
14 -11 14 -12 0 -16 10 -16 48 l0 47 25 -31 c14 -18 43 -39 65 -48z m-1724 9
c14 -30 29 -57 33 -60 10 -5 132 -381 156 -475 8 -36 35 -144 59 -240 82 -329
99 -421 87 -465 -16 -62 -157 -283 -188 -297 -5 -1 -31 -32 -60 -68 -28 -36
-84 -96 -123 -134 l-72 -70 8 45 c12 61 10 266 -4 314 -8 29 -28 55 -72 93
-84 74 -142 162 -152 232 -11 74 -51 131 -106 150 l-42 14 5 136 c3 74 8 151
10 170 2 21 -2 43 -10 54 -10 13 -15 44 -15 92 0 52 -4 73 -14 77 -12 5 -11
15 1 68 8 34 21 78 29 97 8 19 14 43 14 53 0 11 3 19 6 19 4 0 37 -25 74 -55
37 -30 70 -55 74 -55 4 0 39 22 79 48 40 27 79 51 88 54 8 3 23 33 32 69 16
58 68 188 75 189 2 0 14 -25 28 -55z m2030 -2 c-10 -26 -18 -8 -9 23 5 21 8
24 11 11 2 -10 1 -25 -2 -34z m-1535 -6 c-10 -9 -11 -8 -5 6 3 10 9 15 12 12
3 -3 0 -11 -7 -18z m-1181 -112 c0 -8 -9 -15 -20 -15 -22 0 -27 15 -7 23 21 9
27 7 27 -8z m196 -30 c18 -15 17 -16 -14 -10 -18 4 -63 10 -100 15 l-67 7 81
2 c59 1 85 -3 100 -14z m1875 -65 c20 0 29 -20 29 -61 0 -17 6 -32 15 -35 8
-4 15 -12 15 -20 0 -8 16 -45 35 -83 19 -37 35 -71 35 -74 0 -2 22 -51 48
-108 27 -57 53 -117 60 -134 31 -85 48 -643 28 -947 -7 -116 -11 -138 -25
-138 -9 0 -32 -3 -52 -6 l-37 -6 14 58 c17 70 33 230 41 406 7 157 -8 307 -47
467 -17 67 -30 138 -30 157 0 20 -13 77 -30 127 -16 51 -39 125 -51 166 -13
45 -24 69 -29 62 -10 -17 -20 9 -20 52 0 18 -13 58 -29 90 -27 52 -28 56 -8
42 12 -8 29 -15 38 -15z m179 -64 c0 -6 -7 -2 -15 8 -8 11 -15 25 -15 30 0 6
7 2 15 -8 8 -11 15 -25 15 -30z m200 4 c0 -5 -5 -10 -11 -10 -5 0 -7 5 -4 10
3 6 8 10 11 10 2 0 4 -4 4 -10z m-3056 -72 c3 -29 8 -100 11 -158 5 -93 23
-250 56 -495 17 -129 69 -334 105 -417 45 -102 45 -129 -1 -90 -33 27 -82 114
-56 98 23 -15 16 55 -15 151 -35 105 -67 282 -84 463 -6 52 -14 130 -19 173
-18 138 -25 327 -13 327 6 0 13 -24 16 -52z m2513 27 c23 -14 43 -27 43 -28
-1 -18 -29 -91 -34 -89 -3 1 -13 2 -22 2 -8 0 -13 4 -9 9 3 6 -4 15 -15 21
-11 6 -20 16 -20 22 0 9 3 9 12 0 7 -7 18 -12 25 -12 10 0 8 8 -6 28 -22 30
-36 72 -25 72 4 0 27 -11 51 -25z m379 -67 c-2 -10 -1 -18 3 -18 4 0 12 -12
18 -27 6 -16 32 -75 57 -132 25 -57 46 -109 46 -115 0 -6 16 -44 35 -83 19
-40 35 -77 35 -83 0 -6 9 -28 20 -50 22 -43 26 -60 10 -44 -13 13 -120 231
-120 245 0 22 -23 88 -29 84 -4 -2 -8 6 -8 17 -1 12 -6 24 -11 27 -12 8 -62
102 -62 117 0 5 -11 34 -25 62 -28 57 -30 66 -15 57 6 -3 10 4 11 17 0 19 4
16 20 -17 10 -22 17 -48 15 -57z m-246 21 c0 -5 -4 -9 -10 -9 -5 0 -10 7 -10
16 0 8 5 12 10 9 6 -3 10 -10 10 -16z m-2560 -59 c0 -5 -4 -10 -10 -10 -5 0
-10 5 -10 10 0 6 5 10 10 10 6 0 10 -4 10 -10z m-40 -4 c0 -3 -4 -8 -10 -11
-5 -3 -10 -1 -10 4 0 6 5 11 10 11 6 0 10 -2 10 -4z m50 -45 c-11 -21 -40 -29
-40 -11 0 6 6 10 14 10 8 0 17 7 20 16 4 9 9 14 12 11 3 -3 1 -15 -6 -26z
m2831 -152 c22 -45 38 -83 35 -86 -5 -5 -42 64 -69 130 -27 64 -9 41 34 -44z
m-2843 33 c-20 -4 -25 -42 -6 -42 6 0 9 -3 5 -6 -3 -3 -15 -3 -26 1 -16 5 -21
15 -21 40 l0 34 33 -12 c22 -8 27 -12 15 -15z m-4 -141 c3 -5 -1 -14 -9 -21
-13 -10 -15 -9 -15 9 0 21 14 28 24 12z m10 -107 c24 -9 20 -44 -4 -44 -15 0
-20 7 -20 25 0 27 1 28 24 19z m2930 -136 c73 -156 91 -228 83 -336 -4 -57 -2
-81 8 -92 7 -8 20 -44 29 -80 8 -36 18 -73 21 -82 5 -12 1 -20 -11 -24 -32
-12 -54 -36 -54 -59 0 -27 16 -35 52 -28 24 5 28 1 39 -38 7 -24 19 -49 26
-56 12 -10 11 -15 -6 -32 -12 -12 -21 -26 -21 -32 0 -12 -38 -10 -165 9 -42 6
-50 10 -47 27 9 69 17 427 11 501 -4 49 -8 132 -9 184 -1 86 -12 188 -25 248
-11 48 8 17 69 -110z m-294 42 c0 -5 -5 -10 -11 -10 -5 0 -7 5 -4 10 3 6 8 10
11 10 2 0 4 -4 4 -10z m-2633 -52 c-3 -7 -5 -2 -5 12 0 14 2 19 5 13 2 -7 2
-19 0 -25z m3102 -87 c10 -14 26 -42 36 -61 15 -28 15 -33 3 -22 -9 7 -21 26
-28 42 -7 17 -16 30 -21 30 -11 0 -44 66 -53 105 -5 23 0 18 19 -19 14 -27 34
-61 44 -75z m-44 -51 c0 -22 -3 -40 -7 -40 -5 0 -8 18 -8 40 0 22 4 40 8 40 4
0 8 -18 7 -40z m54 -53 c0 -21 -1 -21 -9 -2 -12 28 -12 37 0 30 6 -3 10 -16 9
-28z m-52 -84 c-2 -16 -4 -3 -4 27 0 30 2 43 4 28 2 -16 2 -40 0 -55z m82 55
c-2 -13 0 -29 5 -37 6 -9 5 -12 -5 -9 -8 3 -14 10 -13 16 1 7 2 21 3 32 0 11
4 20 7 20 3 0 4 -10 3 -22z m-44 -98 c-3 -5 -12 -10 -18 -10 -7 0 -6 4 3 10
19 12 23 12 15 0z m-3091 -22 c9 -35 7 -41 -9 -35 -34 14 -90 -116 -99 -231
-7 -89 -90 -251 -141 -274 -28 -13 -60 3 -62 30 -1 15 4 18 22 14 20 -3 30 5
61 54 20 33 43 65 52 71 8 7 17 30 19 50 5 57 24 132 45 183 21 50 89 160 99
160 4 0 9 -10 13 -22z m3136 -6 c0 -11 -8 -18 -20 -19 -22 -2 -23 -1 -14 21 8
22 34 20 34 -2z m-1650 -178 c-36 -143 -68 -227 -132 -349 -28 -53 -144 -241
-175 -283 -13 -17 -21 -37 -17 -43 7 -12 -11 -10 -141 21 -44 11 -98 22 -120
25 -22 4 -49 8 -60 10 -11 2 -26 4 -34 4 -11 1 -10 6 4 21 10 11 24 20 30 20
20 0 188 177 209 220 11 22 25 40 30 40 46 1 356 339 416 453 14 26 26 41 28
34 1 -7 -15 -85 -38 -173z m1727 111 c7 -20 5 -22 -31 -31 -21 -5 -27 -4 -22
5 4 6 16 11 28 11 17 0 18 2 8 15 -9 11 -9 15 -1 15 6 0 14 -7 18 -15z m-114
-2 c-7 -2 -19 -2 -25 0 -7 3 -2 5 12 5 14 0 19 -2 13 -5z m-433 -17 c0 -3 -4
-8 -10 -11 -5 -3 -10 -1 -10 4 0 6 5 11 10 11 6 0 10 -2 10 -4z m415 -6 c-3
-5 -12 -10 -18 -10 -7 0 -6 4 3 10 19 12 23 12 15 0z m-3093 -52 c-7 -9 -6
-24 4 -53 7 -22 14 -49 14 -60 0 -17 -3 -16 -25 10 -27 33 -31 70 -13 110 7
17 15 22 21 16 7 -7 6 -15 -1 -23z m2664 10 c-3 -13 -6 -29 -6 -35 0 -7 -7
-13 -15 -13 -17 0 -20 16 -5 25 6 3 10 15 10 26 0 10 5 19 11 19 7 0 9 -9 5
-22z m474 12 c19 -12 13 -16 -32 -24 -30 -5 -38 -4 -38 8 0 8 10 17 23 19 12
2 24 5 27 5 3 1 12 -2 20 -8z m76 -11 c-16 -4 -35 -5 -43 -1 -7 5 5 8 30 9 38
1 39 0 13 -8z m24 -28 c0 -5 -29 -16 -65 -25 -75 -19 -85 -19 -85 -6 0 6 12
10 28 10 15 0 45 7 67 15 48 17 55 18 55 6z m10 -37 c0 -8 -4 -12 -10 -9 -5 3
-10 10 -10 16 0 5 5 9 10 9 6 0 10 -7 10 -16z m-610 -4 c0 -5 -4 -10 -10 -10
-5 0 -10 5 -10 10 0 6 5 10 10 10 6 0 10 -4 10 -10z m-20 -40 c-9 -6 -9 -9 1
-12 10 -3 9 -6 -3 -10 -11 -5 -15 -2 -13 10 2 9 4 21 4 25 1 5 6 5 12 1 8 -5
8 -9 -1 -14z m530 10 c-36 -11 -50 -11 -50 0 0 6 17 10 38 9 33 -1 34 -2 12
-9z m190 -21 c0 -17 -19 -18 -51 -5 l-34 15 43 -1 c23 0 42 -4 42 -9z m-50
-39 c0 -5 -2 -10 -4 -10 -3 0 -8 5 -11 10 -3 6 -1 10 4 10 6 0 11 -4 11 -10z
m-15 -20 c4 -7 -2 -9 -19 -4 -14 3 -33 3 -43 0 -15 -6 -14 -8 3 -20 16 -12 16
-16 4 -31 -13 -15 -11 -16 23 -10 30 6 37 4 37 -8 0 -12 -12 -15 -57 -15 -31
1 -52 3 -46 5 6 2 9 12 6 23 -3 12 -11 16 -20 13 -11 -4 -14 -2 -9 8 3 8 9 22
12 32 5 13 18 17 55 17 26 0 51 -5 54 -10z m-3509 -103 c12 -11 -18 -57 -36
-57 -26 0 -29 10 -12 40 15 26 33 32 48 17z m3504 -36 c0 -10 7 -35 15 -54 8
-20 15 -47 14 -59 -1 -18 -4 -15 -13 12 -15 48 -24 60 -46 60 -18 0 -30 18
-30 46 0 9 11 14 30 14 23 0 30 -5 30 -19z m-543 -13 c-3 -8 -6 -5 -6 6 -1 11
2 17 5 13 3 -3 4 -12 1 -19z m453 12 c0 -5 -5 -10 -11 -10 -5 0 -7 5 -4 10 3
6 8 10 11 10 2 0 4 -4 4 -10z m-568 -52 c-7 -7 -12 -8 -12 -2 0 14 12 26 19
19 2 -3 -1 -11 -7 -17z m155 -80 c55 -86 149 -285 139 -295 -4 -4 -101 156
-131 217 -10 19 -33 56 -51 83 -39 55 -40 57 -16 57 11 0 34 -24 59 -62z m-84
7 c42 -49 189 -303 184 -318 -1 -5 -36 39 -77 98 -65 92 -95 134 -179 247 -12
16 -11 18 10 18 16 -1 37 -16 62 -45z m373 14 c81 -46 130 -146 104 -213 -12
-34 -50 -66 -76 -66 -19 0 -23 8 -34 68 -10 57 -39 157 -65 225 -10 25 10 21
71 -14z m204 -9 c0 -13 -1 -13 -10 0 -5 8 -10 22 -10 30 0 13 1 13 10 0 5 -8
10 -22 10 -30z m-3631 -48 c-19 -60 -72 -119 -108 -120 -52 -1 -33 41 38 88
12 8 34 37 49 64 22 41 28 46 30 28 2 -12 -2 -39 -9 -60z m71 33 c26 -13 100
-112 100 -133 0 -5 -6 -17 -14 -27 -13 -18 -14 -18 -37 4 -18 16 -34 21 -67
19 -43 -2 -78 -24 -51 -32 8 -2 29 -9 48 -15 18 -6 44 -8 56 -5 l23 6 -24 -48
c-13 -26 -24 -59 -24 -73 -1 -72 -19 -81 -70 -36 -39 34 -67 38 -74 9 -4 -13
-10 -24 -15 -24 -19 0 10 65 44 100 19 20 35 39 35 44 0 19 -65 -42 -98 -93
-56 -85 -72 -92 -72 -29 0 56 34 110 115 183 76 68 95 99 88 138 -6 31 -3 32
37 12z m2800 -112 c46 -64 87 -133 91 -152 10 -41 12 -101 3 -101 -9 0 -316
235 -368 282 -19 17 -18 18 10 29 60 23 159 58 170 58 7 1 49 -52 94 -116z
m781 77 c12 0 12 -107 -1 -115 -5 -3 -7 13 -3 43 3 32 1 52 -6 56 -6 4 -10 17
-10 29 1 17 2 18 6 5 2 -10 9 -18 14 -18z m-51 -15 c0 -5 -5 -3 -10 5 -5 8
-10 20 -10 25 0 6 5 3 10 -5 5 -8 10 -19 10 -25z m-815 -210 c28 -22 78 -63
113 -89 61 -47 63 -49 60 -89 -2 -23 -7 -41 -13 -40 -16 2 -536 251 -563 269
-21 14 -22 18 -10 31 8 8 52 34 98 57 l83 44 91 -71 c50 -38 114 -89 141 -112z
m838 60 c-10 -13 -22 -25 -27 -25 -9 0 11 29 29 42 17 13 17 9 -2 -17z m-2983
-57 c30 -48 58 -150 73 -261 10 -70 10 -100 3 -103 -6 -2 -61 -17 -123 -33
l-112 -29 -77 110 c-80 114 -122 163 -163 189 -24 15 -24 16 66 62 92 47 214
86 301 96 7 0 21 -14 32 -31z m578 5 c34 -5 42 -9 37 -22 -9 -25 -49 -81 -57
-81 -6 0 -50 75 -67 114 -2 5 7 6 20 2 13 -3 43 -9 67 -13z m-78 -74 c12 -22
19 -46 17 -52 -4 -10 -47 73 -47 89 0 14 12 -1 30 -37z m1490 -204 c157 -75
289 -140 294 -145 5 -5 6 -16 3 -24 -6 -14 -11 -14 -49 3 -108 46 -542 243
-701 319 l-99 47 39 16 38 17 95 -49 c52 -27 223 -110 380 -184z m-1045 174
c16 -30 15 -32 -40 -136 -31 -59 -76 -137 -100 -174 -42 -65 -44 -70 -31 -99
l13 -31 81 114 c45 63 102 148 128 188 41 66 45 79 41 122 l-4 47 33 0 c30 0
34 -3 34 -27 0 -16 -11 -74 -25 -131 -14 -57 -25 -114 -25 -128 0 -43 70 -168
85 -153 3 4 9 35 13 69 l7 62 215 95 c118 52 224 97 236 100 21 5 295 -116
291 -128 -1 -4 -46 -54 -99 -111 -53 -58 -112 -123 -130 -146 -18 -22 -45 -44
-61 -47 -45 -11 -155 4 -287 40 -246 67 -376 69 -498 9 -29 -14 -55 -24 -57
-23 -2 2 -26 53 -55 113 l-52 108 31 39 c17 21 46 58 63 82 18 23 54 67 80 98
27 31 48 62 48 68 0 6 11 11 25 11 17 0 29 -9 40 -31z m551 -19 c48 -22 85
-42 83 -44 -10 -9 -399 -186 -408 -186 -18 0 -12 66 13 142 13 40 27 85 30
101 l6 27 95 0 c89 0 99 -2 181 -40z m-2156 11 c0 -5 -12 -16 -26 -26 l-27
-17 19 26 c19 26 34 33 34 17z m3088 -48 c-27 -33 -58 -1 -38 38 l12 22 19
-24 c13 -17 15 -27 7 -36z m-3005 13 c9 3 19 -2 26 -14 8 -15 6 -23 -12 -38
-12 -11 -40 -40 -61 -64 -22 -26 -32 -33 -22 -17 24 38 10 49 -18 15 l-22 -28
-17 21 c-22 26 -15 51 30 106 33 41 35 42 57 28 13 -9 30 -13 39 -9z m192 -37
c43 -40 185 -229 185 -246 0 -5 -63 -26 -140 -46 -129 -35 -142 -37 -168 -23
-15 8 -57 24 -92 35 -85 28 -96 35 -81 52 6 8 30 43 53 79 44 70 161 190 184
190 8 0 35 -19 59 -41z m2863 -26 c0 -16 5 -48 11 -73 6 -25 11 -60 11 -78 0
-44 21 -82 80 -147 62 -68 77 -95 59 -105 -7 -5 -47 -11 -90 -15 -69 -6 -82
-5 -112 14 -18 11 -42 30 -53 42 -19 22 -19 22 4 10 12 -6 22 -9 22 -5 0 3 8
0 17 -7 15 -12 16 -12 10 4 -3 9 -2 17 3 17 6 0 10 5 10 10 0 6 -11 10 -24 10
-34 0 -42 18 -11 26 27 7 34 24 10 24 -8 0 -15 6 -15 14 0 16 -39 66 -40 51 0
-6 6 -17 13 -25 10 -12 9 -12 -5 -1 -13 9 -15 21 -11 44 5 25 3 29 -10 24 -27
-10 -26 18 4 70 25 43 99 123 113 123 3 0 4 -12 4 -27z m-88 13 c0 -3 -4 -8
-10 -11 -5 -3 -10 -1 -10 4 0 6 5 11 10 11 6 0 10 -2 10 -4z m574 -112 c9 -8
16 -21 17 -27 0 -7 3 -25 6 -42 9 -56 5 -100 -16 -150 -17 -41 -21 -46 -26
-30 -4 12 -15 26 -26 33 -24 15 -25 4 -1 -14 16 -13 16 -13 -3 -13 -11 0 -30
8 -42 18 -25 21 -30 33 -10 25 18 -7 19 34 1 60 -16 23 -19 40 -5 32 4 -3 6 5
4 18 -6 30 43 106 68 106 9 0 25 -7 33 -16z m-853 -96 c159 -73 179 -85 189
-112 6 -17 33 -52 60 -78 l49 -46 -37 -6 c-64 -9 -202 -18 -202 -13 0 2 9 25
21 51 23 54 19 76 -21 109 -26 22 -33 24 -84 15 -31 -4 -77 -21 -104 -37 -26
-16 -78 -38 -117 -49 -77 -22 -178 -42 -184 -36 -3 3 240 282 248 283 2 1 84
-36 182 -81z m-2801 52 c-10 -19 -30 -28 -30 -14 0 6 30 33 38 34 1 0 -2 -9
-8 -20z m782 -87 c-3 -28 -15 -50 -45 -80 -46 -48 -55 -51 -63 -25 -17 49 -30
72 -41 72 -12 0 -18 -26 -14 -57 3 -25 -14 -12 -41 30 -19 28 -23 43 -15 46
35 12 185 49 202 50 18 1 20 -4 17 -36z m593 -68 c27 -58 46 -107 43 -110 -7
-8 -69 78 -97 133 -20 40 -21 82 -2 82 5 0 30 -47 56 -105z m3625 60 c0 -18
51 -452 55 -462 4 -12 -17 -15 -162 -27 l-63 -6 0 31 c0 17 -4 38 -9 47 -5 9
-11 47 -15 83 -3 37 -10 97 -15 135 -6 38 -13 94 -16 125 l-6 57 83 10 c100
11 148 14 148 7z m-4440 -81 c23 -36 40 -67 39 -68 -2 -2 -46 -11 -97 -20
l-93 -17 -67 47 c-37 26 -69 49 -71 51 -2 1 -2 5 1 8 5 5 222 63 239 65 3 0
25 -30 49 -66z m4194 -36 c4 -51 11 -122 16 -158 17 -118 18 -140 9 -146 -5
-3 -9 -10 -9 -15 0 -6 4 -8 9 -5 7 5 24 -44 18 -51 -1 0 -42 -5 -91 -10 -61
-6 -89 -6 -92 1 -5 15 -54 418 -54 444 0 22 11 24 146 30 l41 2 7 -92z m-213
-3 c4 -38 10 -100 13 -138 3 -37 10 -109 16 -159 5 -51 8 -94 6 -95 -2 -2 -40
-6 -85 -10 l-81 -6 0 33 c0 31 1 32 34 28 19 -2 32 0 30 4 -3 4 -21 8 -40 8
-20 0 -34 5 -34 13 0 6 -6 52 -14 100 -7 50 -9 90 -4 93 5 3 5 11 -1 18 -13
15 -36 154 -28 163 8 7 121 21 157 19 23 -1 25 -5 31 -71z m-210 28 c3 -49 8
-107 14 -158 7 -56 4 -71 -10 -67 -5 1 -3 -3 6 -11 10 -7 19 -36 24 -75 l7
-62 -39 -2 -38 -1 37 -4 c30 -3 39 -9 44 -29 4 -14 4 -28 0 -31 -3 -3 -40 -8
-82 -11 -75 -5 -77 -4 -71 17 3 11 1 21 -3 21 -10 0 -17 37 -25 130 -3 36 -7
75 -9 85 -12 66 -28 197 -24 201 3 2 38 8 79 13 41 5 77 9 82 10 4 0 8 -11 8
-26z m-191 -15 c1 -25 29 -294 36 -335 6 -40 5 -43 -17 -43 -13 0 -40 -3 -60
-6 -36 -6 -37 -6 -43 32 -3 22 -8 64 -11 94 -3 30 -12 97 -20 147 -19 118 -20
111 13 116 60 9 102 7 102 -5z m-3844 -94 c3 -30 4 -57 1 -60 -13 -14 -25 10
-32 61 -7 62 -25 75 -24 18 1 -21 -4 -49 -9 -63 -11 -25 -11 -25 -11 7 -1 17
-5 35 -11 38 -5 3 -7 20 -4 38 10 58 11 58 48 36 31 -18 35 -26 42 -75z m3714
-99 c6 -60 13 -131 16 -157 l5 -48 -40 0 c-23 0 -41 -3 -41 -8 0 -4 20 -6 45
-4 43 4 45 3 45 -22 0 -31 -7 -34 -74 -38 -45 -3 -49 -1 -53 22 -19 112 -58
426 -53 428 3 1 32 6 65 10 l60 7 8 -40 c4 -22 12 -89 17 -150z m-1230 175 c0
-5 -4 -10 -10 -10 -5 0 -10 5 -10 10 0 6 5 10 10 10 6 0 10 -4 10 -10z m1054
-12 c2 -7 11 -80 21 -163 9 -82 19 -165 22 -182 4 -27 2 -33 -13 -34 -16 -1
-16 -2 -3 -6 9 -2 19 -17 21 -32 4 -26 1 -29 -39 -38 -37 -9 -44 -8 -61 11
-34 37 -33 43 5 44 20 1 40 5 44 9 5 5 -12 6 -36 5 -38 -3 -45 -1 -46 14 -1
11 -2 24 -3 29 -1 6 -5 42 -10 80 -4 39 -14 110 -22 159 -8 48 -12 91 -9 94 3
4 30 9 58 13 29 3 56 7 60 8 4 0 9 -5 11 -11z m-131 -171 c10 -90 21 -175 24
-188 6 -24 6 -24 -29 6 -19 17 -48 37 -65 46 -28 15 -31 23 -51 132 -12 63
-22 124 -22 135 0 21 0 21 105 30 19 2 22 -9 38 -161z m-154 66 c6 -43 14 -97
17 -120 l6 -42 -30 9 c-22 6 -36 4 -51 -6 -23 -17 -18 -29 -45 116 -21 110
-21 108 12 113 82 12 79 15 91 -70z m-2919 61 c0 -4 -52 -85 -66 -103 -2 -2
-30 13 -61 34 -32 21 -53 40 -46 42 9 3 137 28 166 32 4 1 7 -2 7 -5z m2792
-88 c6 -42 9 -79 6 -82 -4 -3 -16 1 -27 8 -18 11 -26 10 -51 -4 -29 -17 -30
-16 -34 5 -2 12 -10 48 -17 80 -7 31 -10 60 -7 63 10 9 103 21 111 13 5 -3 14
-41 19 -83z m-147 27 c3 -27 10 -70 16 -98 10 -49 12 -115 4 -123 -2 -2 -16 0
-32 5 -26 9 -27 10 -7 17 30 9 36 40 12 65 -21 24 -39 26 -56 9 -16 -16 -15
-43 3 -58 20 -17 19 -27 -4 -33 -16 -4 -20 4 -30 67 -6 39 -14 97 -17 128 l-7
57 39 4 c22 2 47 4 56 5 13 2 18 -9 23 -45z m-3230 -5 c132 -54 304 -159 383
-232 32 -30 40 -50 23 -60 -5 -3 -100 -19 -212 -36 -112 -16 -240 -41 -284
-55 -100 -31 -105 -31 -105 0 0 22 58 96 75 95 10 0 5 11 -20 44 -37 49 -43
115 -15 163 12 21 24 52 25 68 2 17 3 36 4 43 1 16 32 8 126 -30z m3089 0 c6
-32 11 -63 25 -178 4 -39 2 -63 -7 -83 -13 -25 -12 -34 4 -70 10 -23 24 -50
32 -60 9 -9 13 -19 11 -21 -2 -3 -31 -6 -64 -8 -50 -3 -60 0 -63 15 -3 13 3
17 22 17 14 0 26 4 26 9 0 4 -11 6 -25 3 -17 -3 -25 0 -25 9 0 8 -3 24 -6 37
-5 17 -2 22 12 23 17 1 17 2 2 6 -10 2 -18 14 -19 26 -1 31 -5 57 -13 95 -6
24 -4 32 6 32 11 0 11 2 0 9 -11 6 -31 101 -32 148 0 11 27 18 81 22 23 1 28
-4 33 -31z m-118 -135 c8 -81 17 -170 19 -198 2 -27 7 -58 10 -68 10 -23 9
-24 -52 -35 -57 -10 -63 -8 -63 20 0 14 8 18 39 18 22 0 43 5 47 12 5 8 -5 9
-39 5 -53 -7 -53 -7 -62 88 -3 33 -13 113 -23 177 l-18 117 46 6 c25 4 52 7
60 9 8 1 16 1 18 0 2 -1 10 -69 18 -151z m-871 137 c-3 -5 -13 -10 -21 -10 -8
0 -14 5 -14 10 0 6 9 10 21 10 11 0 17 -4 14 -10z m719 -46 c11 -86 8 -114
-13 -114 -11 0 -22 -4 -25 -8 -3 -5 8 -7 23 -4 l29 4 8 -104 c9 -107 4 -128
-30 -128 -9 0 -16 -4 -16 -8 0 -5 14 -7 30 -4 25 4 30 1 30 -17 0 -25 -26 -28
-57 -6 -23 16 -37 57 -46 130 -33 257 -32 276 16 295 38 15 44 11 51 -36z
m-2522 -16 c-7 -7 -12 -8 -12 -2 0 14 12 26 19 19 2 -3 -1 -11 -7 -17z m1728
-8 c0 -5 7 -6 17 -3 10 4 14 2 10 -4 -4 -6 -30 -13 -59 -17 -29 -3 -77 -10
-105 -14 -29 -5 -56 -5 -60 -1 -5 4 -30 4 -58 -1 -182 -29 -424 -53 -459 -44
l-24 6 5 -79 c4 -70 3 -76 -10 -58 -13 16 -17 17 -31 6 -9 -7 -17 -10 -17 -5
-1 5 -5 -4 -9 -21 -7 -27 -8 -26 -7 13 0 39 2 42 29 42 16 0 28 5 28 13 0 14
-49 39 -61 31 -5 -3 -9 -1 -9 5 0 6 11 13 25 17 19 5 24 11 20 25 -6 16 0 18
57 18 35 -1 126 8 203 19 77 11 194 25 260 32 66 6 143 15 170 20 72 11 85 11
85 0z m-195 -60 c3 -5 -1 -10 -9 -10 -9 0 -16 5 -16 10 0 6 4 10 9 10 6 0 13
-4 16 -10z m1519 -6 c22 -9 20 -34 -3 -34 -21 0 -45 23 -34 33 8 9 17 9 37 1z
m-1714 -25 c0 -5 -4 -9 -10 -9 -5 0 -10 7 -10 16 0 8 5 12 10 9 6 -3 10 -10
10 -16z m-550 -59 c0 -11 -10 -19 -25 -22 -22 -5 -25 -2 -25 23 0 15 3 35 7
45 6 15 8 15 25 -6 10 -12 18 -30 18 -40z m143 53 c-7 -2 -19 -2 -25 0 -7 3
-2 5 12 5 14 0 19 -2 13 -5z m2122 -63 c11 0 30 7 41 15 20 14 25 10 87 -64
97 -114 137 -177 137 -216 0 -40 -14 -52 -65 -60 -36 -5 -43 -2 -63 25 -19 24
-21 34 -12 44 9 12 6 17 -15 28 -32 16 -93 118 -71 118 9 0 20 9 26 20 10 18
8 20 -25 20 -49 0 -74 15 -91 55 -19 46 -18 49 8 31 12 -9 32 -16 43 -16z
m183 22 c68 -33 99 -57 165 -130 42 -45 83 -96 91 -113 15 -29 14 -33 -5 -60
-14 -20 -29 -29 -48 -29 -26 0 -31 6 -51 63 -32 87 -69 159 -80 152 -5 -3 -26
16 -47 41 -21 26 -46 55 -55 66 -15 15 -16 18 -3 18 8 0 23 -4 33 -8z m-1888
-17 c0 -8 -7 -15 -15 -15 -16 0 -20 12 -8 23 11 12 23 8 23 -8z m200 5 c0 -5
-4 -10 -10 -10 -5 0 -10 5 -10 10 0 6 5 10 10 10 6 0 10 -4 10 -10z m1382 -46
l31 -16 -24 -19 c-29 -23 -33 -23 -49 -4 -10 13 -6 55 6 55 3 0 19 -7 36 -16z
m911 -13 c3 -14 5 -27 4 -27 -1 -1 -28 -5 -59 -8 -39 -5 -58 -4 -58 3 0 6 8
11 18 12 13 0 14 2 2 6 -31 12 -30 28 3 34 67 12 85 8 90 -20z m-2483 -15 c0
-8 -4 -17 -9 -21 -12 -7 -24 12 -16 25 9 15 25 12 25 -4z m208 2 c-6 -18 -28
-21 -28 -4 0 9 7 16 16 16 9 0 14 -5 12 -12z m1482 -126 c41 -59 75 -118 76
-132 2 -14 8 -39 15 -57 10 -25 10 -40 0 -72 -12 -41 -12 -41 -59 -41 -53 0
-78 15 -61 36 6 7 17 10 25 7 8 -3 14 1 14 11 0 9 -4 16 -10 16 -5 0 -10 4
-10 10 0 5 7 7 15 4 25 -10 17 14 -16 45 -30 29 -30 30 -10 41 12 6 21 15 21
20 0 18 -32 40 -58 40 -31 0 -65 33 -98 93 l-22 43 21 1 c11 1 32 11 46 22 15
11 28 20 31 20 3 0 39 -48 80 -107z m-2040 46 c0 -23 -3 -29 -9 -19 -8 12 -4
51 5 51 2 0 4 -15 4 -32z m360 14 c0 -13 -12 -22 -22 -16 -10 6 -1 24 13 24 5
0 9 -4 9 -8z m200 -2 c0 -5 -7 -10 -15 -10 -8 0 -15 5 -15 10 0 6 7 10 15 10
8 0 15 -4 15 -10z m-1636 -17 c-5 -10 -9 -44 -9 -75 l0 -57 -42 -10 c-23 -6
-51 -11 -62 -11 -18 0 -19 3 -9 31 8 24 8 33 -3 39 -10 7 -11 18 -3 47 8 35
13 39 49 44 77 12 88 11 79 -8z m1019 -34 c-3 -10 0 -26 7 -34 15 -18 3 -20
-13 -2 -17 17 -18 67 -2 61 7 -3 11 -14 8 -25z m635 -22 c2 -10 -3 -17 -12
-17 -10 0 -16 9 -16 21 0 24 23 21 28 -4z m-208 -2 c0 -8 -7 -15 -15 -15 -16
0 -20 12 -8 23 11 12 23 8 23 -8z m-360 -25 c0 -5 -2 -10 -4 -10 -2 0 -12 -3
-20 -6 -12 -5 -15 -2 -10 10 7 17 34 22 34 6z m677 -120 c-2 -8 -11 8 -19 35
-9 28 -13 54 -10 60 8 12 34 -74 29 -95z m-307 75 c0 -8 -4 -15 -10 -15 -5 0
-10 7 -10 15 0 8 5 15 10 15 6 0 10 -7 10 -15z m210 -9 c0 -8 -4 -17 -9 -21
-12 -7 -24 12 -16 25 9 15 25 12 25 -4z m-1430 -17 c0 -4 -19 -29 -43 -55 -51
-59 -217 -291 -277 -389 -58 -93 -66 -102 -102 -107 -30 -5 -32 -3 -75 91 -41
87 -91 225 -113 308 l-8 32 79 31 c103 39 289 80 409 89 115 9 130 9 130 0z
m760 -9 c0 -11 -13 -34 -30 -52 l-29 -33 -1 29 c0 17 9 40 22 53 26 28 38 29
38 3z m1723 4 c10 -10 -12 -44 -28 -44 -16 0 -18 9 -9 34 6 16 25 21 37 10z
m-1643 -34 c-20 -13 -40 -13 -40 0 0 6 12 10 28 10 21 0 24 -2 12 -10z m657
-32 c-3 -7 -5 -2 -5 12 0 14 2 19 5 13 2 -7 2 -19 0 -25z m808 22 c3 -5 1 -10
-4 -10 -6 0 -11 5 -11 10 0 6 2 10 4 10 3 0 8 -4 11 -10z m272 4 c-3 -3 -12
-4 -19 -1 -8 3 -5 6 6 6 11 1 17 -2 13 -5z m-1717 -24 c0 -5 -7 -10 -15 -10
-8 0 -15 5 -15 10 0 6 7 10 15 10 8 0 15 -4 15 -10z m2245 -12 c9 -43 9 -53 2
-81 -6 -20 -12 -27 -23 -23 -9 3 -30 6 -48 6 -32 0 -32 0 -27 43 4 28 11 42
21 42 8 0 18 8 22 18 11 25 47 22 53 -5z m-1635 2 c0 -5 -7 -10 -15 -10 -8 0
-15 5 -15 10 0 6 7 10 15 10 8 0 15 -4 15 -10z m1110 -16 c0 -8 -4 -12 -10 -9
-5 3 -10 13 -10 21 0 8 5 12 10 9 6 -3 10 -13 10 -21z m-2358 -5 c29 -21 30
-23 23 -88 -7 -67 -32 -196 -34 -174 -3 31 -32 240 -36 261 -7 28 8 28 47 1z
m572 -111 c3 -71 2 -128 -2 -128 -5 0 -9 6 -10 13 -4 29 -10 62 -12 62 -1 0
-3 10 -4 23 -2 12 1 22 6 22 4 0 8 32 8 72 0 108 6 78 14 -64z m1843 97 c8 3
24 -1 36 -7 12 -7 29 -13 37 -13 26 0 23 -36 -4 -62 -26 -24 -28 -24 -53 -8
-14 9 -28 26 -30 36 -3 12 -14 19 -29 19 -13 0 -24 5 -24 10 0 6 6 9 13 8 7
-2 14 10 16 27 3 29 4 30 14 7 6 -13 16 -21 24 -17z m-1874 4 c-6 -6 -17 -8
-24 -3 -9 5 -8 9 7 14 23 9 31 3 17 -11z m-50 4 c4 -3 -1 -12 -11 -19 -9 -8
-12 -14 -5 -14 8 0 11 -14 9 -37 -2 -21 2 -44 7 -50 7 -9 5 -13 -6 -13 -11 0
-16 16 -19 63 -3 34 -3 65 -1 70 5 9 17 9 26 0z m-538 -184 c21 -132 25 -173
15 -179 -7 -4 -49 -10 -93 -14 -45 -4 -122 -13 -172 -20 -49 -8 -92 -12 -94
-10 -2 2 17 25 42 51 26 27 68 80 96 118 27 39 67 90 90 115 22 25 48 60 58
78 10 17 20 32 24 32 4 0 19 -77 34 -171z m570 111 c-3 -5 -11 -10 -16 -10 -6
0 -7 5 -4 10 3 6 11 10 16 10 6 0 7 -4 4 -10z m-87 -68 c9 -63 0 -87 -12 -31
-7 37 -8 104 -1 97 3 -2 9 -32 13 -66z m-186 -52 c2 -4 29 -23 61 -44 62 -39
66 -56 14 -56 -18 0 -49 -5 -70 -11 -54 -15 -69 -7 -57 28 5 15 12 50 15 78 6
45 8 48 21 31 7 -10 15 -22 16 -26z m258 14 c0 -7 8 -17 17 -23 21 -12 15 -20
-18 -23 -21 -3 -24 1 -27 34 -3 31 0 37 12 32 9 -3 16 -12 16 -20z m50 -95 c0
-6 -4 -7 -10 -4 -5 3 -10 11 -10 16 0 6 5 7 10 4 6 -3 10 -11 10 -16z m-70
-25 c0 -24 -4 -34 -12 -32 -24 8 -22 68 2 68 5 0 10 -16 10 -36z m-1310 -14
c0 -5 -5 -10 -11 -10 -5 0 -7 5 -4 10 3 6 8 10 11 10 2 0 4 -4 4 -10z m1364
-15 c3 -8 0 -18 -7 -22 -7 -5 -18 -19 -24 -33 -11 -23 -12 -23 -7 10 8 49 12
60 23 60 5 0 11 -7 15 -15z m-1336 -81 c21 -74 19 -75 -51 -11 l-30 28 29 18
c34 22 37 19 52 -35z m3502 -34 c0 -5 -5 -10 -11 -10 -5 0 -7 5 -4 10 3 6 8
10 11 10 2 0 4 -4 4 -10z m-3154 -28 c6 -4 14 -32 18 -63 l7 -57 -33 -5 c-120
-20 -110 -23 -140 30 -44 80 -42 87 22 94 85 9 114 9 126 1z m2784 -71 c0 -14
-18 -23 -31 -15 -8 4 -7 9 2 15 18 11 29 11 29 0z m-1412 -53 c17 -35 1 -75
-33 -84 -56 -14 -90 67 -42 101 30 21 59 15 75 -17z m-1608 12 c0 -5 -2 -10
-4 -10 -3 0 -8 5 -11 10 -3 6 -1 10 4 10 6 0 11 -4 11 -10z m1958 -11 c-2 -6
-8 -10 -13 -10 -5 0 -11 4 -13 10 -2 6 4 11 13 11 9 0 15 -5 13 -11z m-1847
-91 c11 -21 11 -22 -4 -9 -10 7 -17 17 -17 22 0 15 9 10 21 -13z"/>
<path d="M2460 7496 c0 -2 9 -6 20 -9 11 -3 20 -1 20 4 0 5 -9 9 -20 9 -11 0
-20 -2 -20 -4z"/>
<path d="M2390 7419 c0 -5 5 -7 10 -4 6 3 10 8 10 11 0 2 -4 4 -10 4 -5 0 -10
-5 -10 -11z"/>
<path d="M2041 7374 c0 -11 3 -14 6 -6 3 7 2 16 -1 19 -3 4 -6 -2 -5 -13z"/>
<path d="M3900 7450 c0 -5 7 -7 15 -4 8 4 15 8 15 10 0 2 -7 4 -15 4 -8 0 -15
-4 -15 -10z"/>
<path d="M3892 7359 c1 -12 8 -24 15 -26 7 -3 9 3 6 17 -8 29 -25 37 -21 9z"/>
<path d="M2532 7319 c-7 -10 -12 -30 -12 -43 0 -13 -7 -27 -16 -30 -9 -3 -14
-12 -11 -20 3 -7 0 -19 -6 -25 -8 -8 -8 -11 0 -11 7 0 15 10 19 23 4 12 9 24
13 27 3 3 16 24 27 47 16 30 18 43 10 46 -7 3 -18 -3 -24 -14z m11 -14 c-3 -9
-8 -14 -10 -11 -3 3 -2 9 2 15 9 16 15 13 8 -4z"/>
<path d="M2476 7163 c-13 -48 -17 -83 -8 -83 5 0 9 13 10 29 0 17 6 39 12 50
6 13 7 21 1 21 -5 0 -12 -8 -15 -17z"/>
<path d="M3416 7147 c3 -10 9 -15 12 -12 3 3 0 11 -7 18 -10 9 -11 8 -5 -6z"/>
<path d="M2025 7100 c-3 -5 -1 -10 4 -10 6 0 11 5 11 10 0 6 -2 10 -4 10 -3 0
-8 -4 -11 -10z"/>
<path d="M1560 6283 c-12 -16 -28 -43 -36 -62 -16 -38 -19 -118 -5 -123 6 -2
3 -26 -5 -58 -18 -70 -17 -99 2 -40 8 25 16 79 18 121 4 73 29 147 56 164 5 3
10 10 10 16 0 17 -19 9 -40 -18z"/>
<path d="M1547 6153 c-4 -3 -7 -11 -7 -17 0 -6 5 -5 12 2 6 6 9 14 7 17 -3 3
-9 2 -12 -2z"/>
<path d="M2870 6196 c0 -8 5 -16 12 -18 8 -3 2 -15 -16 -34 -57 -60 -50 -84
26 -84 18 0 53 -6 78 -14 38 -12 49 -11 73 1 18 9 44 12 77 8 63 -7 90 6 90
45 0 19 7 33 20 40 11 6 20 17 20 26 0 11 -4 12 -19 5 -36 -20 -319 2 -328 25
-7 18 -33 18 -33 0z"/>
<path d="M2550 5665 c-38 -28 -50 -43 -50 -64 0 -13 97 66 99 82 2 13 -15 7
-49 -18z"/>
<path d="M2221 5274 c0 -11 3 -14 6 -6 3 7 2 16 -1 19 -3 4 -6 -2 -5 -13z"/>
<path d="M2215 5230 c10 -35 25 -49 25 -23 0 11 -7 27 -16 34 -15 12 -16 11
-9 -11z"/>
<path d="M3052 5210 c7 -10 14 -18 15 -16 6 6 -9 36 -18 36 -5 0 -4 -9 3 -20z"/>
<path d="M1800 5000 c-7 -16 -16 -27 -21 -24 -5 3 -9 -2 -9 -10 0 -10 -6 -13
-16 -9 -11 4 -15 1 -12 -13 2 -13 -3 -19 -16 -19 -11 0 -21 -6 -24 -13 -2 -6
1 -12 7 -12 6 0 11 -7 11 -16 0 -14 -2 -14 -16 -3 -13 11 -15 11 -14 -2 1 -7
2 -22 1 -32 -1 -15 -3 -16 -15 -5 -8 7 -10 15 -5 18 4 3 4 11 0 18 -5 9 -11 5
-19 -13 -6 -14 -8 -25 -3 -25 9 0 22 -52 15 -59 -2 -2 -10 1 -17 7 -10 9 -14
8 -14 -3 0 -8 4 -12 9 -9 4 3 8 1 8 -5 0 -5 -10 -13 -22 -17 -35 -10 -52 -44
-23 -44 8 0 15 7 15 15 0 8 9 15 19 15 11 0 21 5 23 12 3 7 7 5 11 -6 4 -10 3
-15 -3 -11 -6 3 -10 -1 -10 -9 0 -9 7 -16 15 -16 8 0 15 4 15 9 0 5 7 11 14
14 10 4 13 1 9 -9 -4 -10 0 -12 10 -8 9 3 13 12 10 20 -3 8 1 14 10 14 8 0 17
-6 20 -12 2 -7 4 19 4 58 1 55 6 81 27 121 15 31 23 59 19 69 -5 13 -3 16 10
11 20 -8 22 6 3 22 -11 9 -16 5 -26 -19z m-30 -79 c-10 -20 -30 -37 -30 -27 0
6 33 46 38 46 1 0 -2 -9 -8 -19z m-17 -76 c-7 -21 -12 -19 -10 4 0 11 5 18 9
15 4 -3 5 -11 1 -19z m-23 -9 c0 -1 -5 -18 -12 -36 -11 -32 -12 -32 -19 -11
-6 14 -4 27 4 36 11 13 27 20 27 11z"/>
<path d="M1909 4953 c-13 -16 -12 -17 4 -4 9 7 17 15 17 17 0 8 -8 3 -21 -13z"/>
<path d="M1396 4951 c-3 -4 -8 -35 -11 -67 -5 -49 -4 -56 6 -39 7 10 14 41 16
67 4 46 0 58 -11 39z"/>
<path d="M2108 4911 c22 -22 48 -51 57 -65 l17 -25 38 32 c22 17 35 36 30 40
-11 12 -141 57 -164 57 -14 0 -9 -9 22 -39z"/>
<path d="M1860 4919 c0 -5 5 -7 10 -4 6 3 10 8 10 11 0 2 -4 4 -10 4 -5 0 -10
-5 -10 -11z"/>
<path d="M1783 4838 c0 -7 -2 -19 -4 -27 -2 -7 2 -16 10 -19 8 -2 11 0 8 6 -4
5 0 15 9 22 12 11 12 15 2 21 -18 12 -25 11 -25 -3z"/>
<path d="M1610 4818 c0 -4 4 -8 9 -8 6 0 12 4 15 8 3 5 -1 9 -9 9 -8 0 -15 -4
-15 -9z"/>
<path d="M1582 4786 c7 -8 15 -12 17 -11 5 6 -10 25 -20 25 -5 0 -4 -6 3 -14z"/>
<path d="M1299 4628 c4 -12 14 -24 20 -26 8 -3 7 5 -4 22 -21 32 -27 33 -16 4z"/>
<path d="M1720 4640 c0 -5 5 -10 11 -10 5 0 7 5 4 10 -3 6 -8 10 -11 10 -2 0
-4 -4 -4 -10z"/>
<path d="M939 4781 c-101 -65 -160 -131 -183 -204 -11 -36 -15 -62 -9 -68 6
-6 16 12 27 46 23 73 120 179 200 218 31 15 56 32 56 37 0 22 -22 16 -91 -29z"/>
<path d="M1209 4733 c-13 -16 -12 -17 4 -4 9 7 17 15 17 17 0 8 -8 3 -21 -13z"/>
<path d="M3430 2559 c0 -5 5 -7 10 -4 6 3 10 8 10 11 0 2 -4 4 -10 4 -5 0 -10
-5 -10 -11z"/>
<path d="M3547 2499 c4 -13 8 -18 11 -10 2 7 -1 18 -6 23 -8 8 -9 4 -5 -13z"/>
<path d="M3523 2475 c-6 -15 -7 -27 -2 -31 11 -6 22 19 17 40 -2 11 -6 9 -15
-9z"/>
<path d="M3534 2425 c-4 -8 -10 -12 -15 -9 -5 3 -9 1 -9 -5 0 -5 5 -13 10 -16
6 -3 10 -2 10 4 0 5 7 17 16 25 8 9 10 16 4 16 -6 0 -13 -7 -16 -15z"/>
<path d="M3480 2400 c-8 -5 -12 -11 -9 -14 2 -3 11 -1 19 4 8 5 12 11 9 14 -2
3 -11 1 -19 -4z"/>
<path d="M3435 2389 c-4 -6 -5 -12 -2 -15 2 -3 7 2 10 11 7 17 1 20 -8 4z"/>
<path d="M2405 2154 c-11 -17 -12 -25 -4 -22 6 2 16 14 20 26 11 29 5 28 -16
-4z"/>
<path d="M2360 2113 c0 -5 5 -15 10 -23 8 -12 10 -11 10 8 0 12 -4 22 -10 22
-5 0 -10 -3 -10 -7z"/>
<path d="M2660 2039 c0 -5 5 -7 10 -4 6 3 10 8 10 11 0 2 -4 4 -10 4 -5 0 -10
-5 -10 -11z"/>
<path d="M2126 2299 c-45 -53 -31 -78 55 -96 21 -4 30 2 52 34 15 22 27 42 27
46 0 9 -76 47 -94 47 -8 0 -26 -14 -40 -31z m72 -15 c26 -5 30 -9 22 -23 -26
-44 -26 -44 -59 -30 -33 15 -38 28 -19 47 14 14 15 14 56 6z"/>
<path d="M2909 1746 c-58 -55 -87 -66 -172 -66 -21 0 -65 -11 -98 -25 -46 -20
-75 -25 -120 -24 -43 2 -64 -2 -76 -13 -14 -15 -13 -16 8 -16 13 0 58 -3 100
-7 71 -7 77 -6 119 20 25 16 61 29 85 30 69 5 159 60 206 126 31 44 10 34 -52
-25z"/>
<path d="M5441 1401 c-22 -14 -5 -60 24 -67 31 -8 55 10 55 41 0 32 -46 47
-79 26z"/>
<path d="M5265 1170 l-30 -6 30 -6 c32 -7 69 5 44 14 -8 2 -27 2 -44 -2z"/>
<path d="M5197 1159 c7 -7 15 -10 18 -7 3 3 -2 9 -12 12 -14 6 -15 5 -6 -5z"/>
<path d="M4970 1370 c0 -6 7 -10 15 -10 8 0 15 2 15 4 0 2 -7 6 -15 10 -8 3
-15 1 -15 -4z"/>
<path d="M5093 1153 c9 -2 23 -2 30 0 6 3 -1 5 -18 5 -16 0 -22 -2 -12 -5z"/>
<path d="M4797 1433 c-26 -26 19 -97 47 -74 11 9 15 9 19 -1 4 -11 7 -11 18 0
12 11 12 13 -1 10 -11 -2 -14 4 -12 21 1 13 -3 30 -9 37 -12 15 -51 19 -62 7z"/>
<path d="M4808 1263 c6 -2 18 -2 25 0 6 3 1 5 -13 5 -14 0 -19 -2 -12 -5z"/>
<path d="M4816 1234 c-26 -25 -14 -58 22 -62 23 -2 33 2 43 19 10 20 9 25 -11
41 -27 22 -34 22 -54 2z"/>
<path d="M4820 1130 l-35 -7 38 -2 c20 0 37 4 37 9 0 6 -1 9 -2 9 -2 -1 -19
-5 -38 -9z"/>
<path d="M4332 1298 c-31 -31 1 -95 42 -82 40 13 48 49 16 77 -24 20 -41 22
-58 5z"/>
<path d="M3520 1202 c-28 -8 -40 -32 -28 -57 8 -18 18 -22 51 -22 23 0 34 3
24 5 -14 3 -16 7 -7 17 23 28 -6 68 -40 57z"/>
<path d="M3531 1049 c-18 -6 -32 -11 -30 -13 9 -7 89 7 89 15 0 11 -14 10 -59
-2z"/>
<path d="M3356 7966 c21 -15 30 -14 19 3 -3 6 -14 11 -23 11 -13 0 -13 -2 4
-14z"/>
<path d="M5629 130 c-3 -69 -4 -127 -2 -129 10 -14 13 21 11 130 l-3 124 -6
-125z"/>
<path d="M1534 100 c-24 -17 -47 -43 -53 -61 -14 -41 -15 -39 16 -39 17 0 36
11 55 32 24 27 35 32 63 29 30 -2 36 1 45 25 13 33 1 44 -50 43 -22 0 -50 -11
-76 -29z m106 -20 c0 -5 -4 -10 -9 -10 -6 0 -13 5 -16 10 -3 6 1 10 9 10 9 0
16 -4 16 -10z"/>
<path d="M5140 19 c-239 -5 -451 -10 -470 -12 -19 -2 183 -4 448 -5 370 -2
483 1 480 10 -2 6 -8 12 -14 13 -5 1 -205 -2 -444 -6z"/>
</g>
</svg>
